<mxfile host="Electron" agent="Mozilla/5.0 (Windows NT 10.0; Win64; x64) AppleWebKit/537.36 (KHTML, like Gecko) draw.io/27.0.9 Chrome/134.0.6998.205 Electron/35.4.0 Safari/537.36" version="27.0.9">
  <diagram name="Page-1" id="XhTI0RHIODjcna_7uVKa">
    <mxGraphModel dx="1188" dy="708" grid="1" gridSize="10" guides="1" tooltips="1" connect="1" arrows="1" fold="1" page="1" pageScale="1" pageWidth="1100" pageHeight="850" math="0" shadow="0">
      <root>
        <mxCell id="0" />
        <mxCell id="1" parent="0" />
        <mxCell id="sacguVR-Hg_UPBlP-U39-4" value="" style="shape=image;verticalLabelPosition=bottom;labelBackgroundColor=default;verticalAlign=top;aspect=fixed;imageAspect=0;image=data:image/png,iVBORw0KGgoAAAANSUhEUgAABFoAAAI4CAYAAABa0o34AAAAAXNSR0IArs4c6QAAAARnQU1BAACxjwv8YQUAAAAJcEhZcwAADsMAAA7DAcdvqGQAAN+bSURBVHhe7N0JYBTl/T7wZ3Nzh1vx4Aw3ihQP8EBUUCIqqODRerRW8OhfodYWrbb+1KqtbUVbbcGjqFUrqFBFUFARFdCiiNwkATnkEpBwh5z/93l3Jpkss8lusgkJeT74ujOT2ZnZud/vvO87gSIDIiIiIiIigsC5DzhdtdPm10Y7XSJ107HHHut0HTkKtIiIiIiIiIiIxEic8ykiIiIiIiIiIpVUqkTL/I/+i9UfjEfcnizTV15BlwAKG3dClwvGoP95lznDRERERERERETqruJAC4Msgbk3ot9x2fYPkVqwKRVFAyYp2CIiIiIiIiIidV5x1aFVs5+IPMiS3AxInwUcOwBntMnG8llPOn8QEREREREREam7igMtcXvXIq8oAYUN2wOD3gIG/AtIbOz81SOlJTB0DnDMWSiKT8HugiYo3LvR+aOIiIiIiIiISN1VHGjJKUzCrvxmyO37Z+T9kGH+kgh0v9X5qyOlFTD0I6BJGopmDcfudZ8jtygZ4V9cNBOjAwEEitOZeJLNv0Qr60mcWdHvRix0WQMYPdP50xHHZfP8/pmjPcs52vzVDixjXfNv7niuLDx5pmf8M580QyjcenCGh1kpWU+eacatyDYK+W2+yhsn3DIfKZH8psPZdVhqwcNtozC4X9jv+82/YssUtTKXgappOapK8e8LCu73nm1UBTvezNGh+7PPOgxZrsjUrG3B33lmrd0xwuPvcvcP7+8rve+Enp897Pk+/N/DTV9EREREjpySEi0oQkrcQQQO7URBag/b0C2adnP+atRrDVzyEdC4I4o+uhb7du+0QZby9cf4zCIbjMkcD4y5oZzMop9Od2Je0TzcaRYpetFkJkqWlWnCEGewryOUSWHQKR2Y4SxjUWZ3ZBTfgUe4rm3gKg0r7iv5rUUvAu/6TIepZD30R/9lD/v85pl4fMx8p/tIiWbb1UBmm9wweSQy3QUvdxuFysKTDy/D+LuP5A+vCcvgFetjtPTvY0Y5bUzPkmPRpBlIj3mwZciwUZg4zTPNrAwsw3xMfrfkh2VlLEP/7mlOX+00ZEImRk6+ocYEfmLCHMcZw9z9YwZ6jin5fZkr5mPUDPdvE3D4UeMEWqcBo5whhylj+iIiIiJy5BQHWpLjDqFx/F4Evvg18jYvQMGWBUDHq4CuNwP1nJIsjTrYIAu63476l04HEurx3UNIDOQ5Uylbpzvvw6j5k+HJH0i0Mldgfv/uKM5SdboTd/rka8Ova3PzfsMY9DQ3+KWCEWGmE6pnT5TK4Fkzp2HiqFHhMwNSrqx3JwMjL0YwlliBbZT1Lib3vK+CwcgYqQnLUJW8v4+BMRtkKZ1BZrBgvG8wshLSuqP/sgyzVwRxX+k5fjywItMdguDuU9tXfCfceV9PjHk8toGqI6rUMZuG7v2dTqs/yo6NmfUxrwhFE4Y5/T7KnL6IiIiIHCnFgZaConiT4pCTW4CDS55D7oLfAu9dCmSvBi7+EGjUvjjIgmPPwd65v0Ygfz9SE7KREChwphKN4NPm0aNZfNopFm2f4pcUgy55MBzyZLrUeN4i1c4TwOLv83vpmIj5GJNmhnGCLIZdXhWMYsHpFRfHLv6uz3TJd7lCf6fzW55kcfDguN7i3t5i4L5PxocMw6j5Y3BDRXNyzCzOH4Vh4TLs5eh+933oOeZx57eRWUf2KX9IZiDstjQ8fzvzyQxnoCPstnWFbmNn8GHCbTu3t2QaJevZ2TYzS5aBf/IW8S/ZVoePG7bYfgS/qVRGubxt5LMP28x3xBs1zDqMaP8Nv/6jW4agqtsOHF7eMepdfmc6YY5LKvX7GPAcNcynFEIndO7pljZxplk8mdB+v3XpM6zTxRgJN2ga3Fe6X9wZPSdOM1OkTKyY3xOd3ThLOb+x1Dm3GP9mxrcj+y2Xs+xh9vfw561o9jUjJKgUFc80z3zySc+6jtF28BXpeOTdTlnIWObsm+Z7Yc8dUQnZD0RERETkiCkOtOQWJWJnfgvkFNWz/QcL66Fwx9fAmU8VVxdygyy7Z41GfP2WaJSYg70FjWyQJhJZTz6Mif1HouTB63ws6/6iU2za3PymBZ/i22LQmeOxLN17M+zieJMx0q0mMgN42I7EG940TB6Z6RSjZmmAIZhgRhjlVisptz5JyY1v8OafTxRZHJuBBTNfVtmZd6cZ6jfdcMtF3t8Z7B+zYpgz3ijM9wQuhkxwvs/pT/R7Ms55s4h9Wpk39oevaw9viRhfoevBawiGjZqI4poMDAqYbGDp+ZS1LUv/7UXz7Yn2O1TWOnTMfBxjes5w1pG3xEek2y4o/Ho203kYeNHOfxQmpgdwg1nK4PKU3lalxg3W1Ypif/XyySCVu428WHWrZ+TBM991WNZyevbfsOvfbxm828RNDH6UqLrtEO4YLescY6YT5rgM/X2sqhNOWkTFCvzOV2aw7/oNBm+CBVjMvmKPNx6Hy5DBZbclytygT/m/sfS5iLgstj5icD2VdYyF2d/9t2OY32iXMcy+1qkzes5fYX5ltEr/7tLnlbJEsx18RDqeMdOchJaNv9tZ705pFfu92FT5KT19ERERETmSigMtLJWSEjhoE6sDFSU1RUH6h0CTLocFWZJPHIiGAx7HoROuQH5Rog3ShFeS2bLtGXgyuyw6XfIUn+0OeJ7id7oT941yMxceTvsExRm49ImYz5GcUgD3lVdvYcgEFJVaBi9vOx9uRsRk2ExGIN1kEDHDmzkJEW65LM/vtMx83HYsWELFfNNmmMg2fMhplM6QlubcpNtMlDfYUta69ig3I+O3HkoMudvM9+FgiYqZj5vMzX0h8ylrW/Jv/cfD/fm2ilOws5x16OAT74npPk+Ao9x2Ydezmc6Lzu+x28az7UK3lXfcaPfX8pS1jUL3YZPRjiqD5bcOI91/w61/32XwbhM3MfjhUV3bgcraLy0znbDHZenf16lzT6ergsKdr8Ks3+J2WhhU6dnZ/lYzqi05U6p9lgh+Y+lzkZnGDcFAQ3GQoKxjLNx69tuO4X5jmfsaq794t60jXAkYF6cZ7rxSlmi2g98yhF1XXgzmBPBw90zM870+MWhWus2d6JQ3fRERERGpbsWBFraz0jhhr02sDtTg5J8DeQdRMOsK5DXti7y4Rtj9/ijEJzVAUrNO2Dfvdzi0Nni7G7D/D8eb2SojUBGVUaUaoCy/pEp1qeRy8UbePljm9zMxvrwH4yaz86IZqaShzAjWNash9PeUSKkItyrDzCfx8LKSzE1slLMOzW+eZ4a/iBtshqfsovphRLueI8KqAE7nYaLcL6LaRiaT9fCykMyzT1sNNnPrlJoJuw4jWE7f7/otQwSqfTtUlM/vsxlst+qOVyXbSwm3bTi/ZRmYaX7cKCeK0unikcCKdyvZPgsbse5fOvgX0THmWc8V2o7h9rUw1V+cZQqOH6vrSBn81oHfMpS7rhgEuYHFgMoNgvSsUJ2fyKcvIiIiItWnONBSLJCAxK7XIWn3Nyh4ewD2rpuH7P89heyplyLv23eRmPkcdr11KQ5+E3xuaUvBxOXY7kphkXF4q6SYTPxEn3YqnPEOq37hZE4Pr5YRwqd9i7LNDFY7Yfn2dJ8nqa5wyxUNb0O39kmrHVrazCc9RcyZqZsf5dtGOuHO+4JVMUplCsz6fjLsjwvFafTEmPQxngZcPcralrZqwBi47V3aKk7BzqjWYac75yHT5OiWHfbo2yvMtotkPUfE8xTaeTIe8f5aSuhT/HK2kXcf5nwPa4A2WNXE+9YpljwKbVOk1DqMcv8t9V3fZYhAdW4HKmu/LIvf7zMZ7PtGTUR6qXMJM71pGFM8Lrert9THNM++Xvb56rD92wY3x4CHXPHhzt8zcQzGeAMTUf/G/hj54jz7tqTQUhmHH2Nh1nO47RjuN5a1r9mSKdFUm3NwmuHOK7HcDmGEHc9WLSrn2LDbyG0Y15yzSrUf48czTiTTFxEREZFq5wm0OOVSut8KJDRAQqs+yDv+MiT0+Q2SOw5FYmp7NOk3Dvnd70Rcq75odN6TaHhMdzSK31vy3UoZgglOVRg+GQzYOvx+Ty6D42FMsI0Sm4KPG502OUqGBzOpwWLZtpj64Y8bQ3iKs5t0psnVsu2CYJWBIbh7/DJPxip0uuGWKwpD7sZ4k5lK43dvWIGefk+Gh3TGiuJlZKZuRvRPMln1xLuu7fyAi4tXduh68Lnr57L2D1dVq6xtyeo8wSAC/3aDyT6WFPGPYB0WV1EIVo8qmX8U2y6S9RyR/ui5IvgkO2Dbh4hmf/XqBBZOKFV1oNxtFBSuAVr79hv3N5qUvmx8yaujfddhhPuvz3cr0giuVeXbwf8YLf8cU1r4dVyEzJGTi9exPR7ne6ofeQJm9u+lXtMb5nwVdv/mPmJWUKl2l/j7zEepAFrFfmPw1cpmWXiMhF2GMOs57HYMf04Ou68xaONUjYqOmWbY80ost0OIcsazbflMTC8ehyl4PmWwxBlm1+W8CgVLwk9fRERERI6kQBHLQRsv3HMuftZ+LnDSr1CUtxdFHa/F3m9eRHKnS5G/cwWSt85CftdbsfejMYhv3BaNT7sTRRvew76MtzF1w0m46bGP7QSrBm9Kp2FYdRQZF4kI98mH0T2zYhmkw2Q9CVsDIGz7QX7MMpyZgbuj+k6sHelliPF2OEyUv4/b0WSc54PV+KpqmY6Eql7P5FaDicU8qmN5RURERET8FZdo6TpoLBZsSkXRin8gp14nHNq9Cbkb5yD/u49RLwnYk/0D8jYvQL2TbkZy3CEU7d+CfTs2YOGmRug2eKwzlSrCot4VKU4uUlt0uhMvsnSE+2Q/IkMw4YgGWagmLENVivL3FbfjoQx+tGaO9la7EhERERGpvYpLtND8j/6LlbOfQv6eDbbBP2IjuYWIR0FRMCbDSkLJcTk4VFQPgUbt0XPw7eh/3mX2bzF31D4dltpPT8xrBm2H6lHb1rP2CxERERE5ckoFWkREREREREREpOIOf+uQiIiIiIiIiIhUiAItIiIiIiIiIiIxokCLiIiIiIiIiEiMKNAiIiIiIiIiIhIjCrSIiIiIiIiIiMSIAi0iIiIiIiIiIjGiQIuIiIiIiIiISIwo0CIiIiIiIiIiEiOVC7RkjUf//uOR5fQeMTVlOURqstp4nOjYrn5a5yIiIiIilVJ2oIU33IEAAqXSaMysrhtx3/n3x/hwM/YuVyyX8bDlMOvA+VPEwi1bRZczlr8vGqXWRQXWQ6Ri+ftKLXMMtl80YvY7sjC+v/c3lKT+YQ+Iahaynu1yxXI7huOdR3XMz89h8+X2MueqD4/Q8rj81seRWkciIiIiInVE+SVa+j2BzKIiFBWnCRjSaQzmzx+DTs4oVeqw+c/HmHAzrsrl8i7HDCA92oxKuGWr6DJX5zbw4nwzn0A/uz7MvuAMrvGqavtVm04YM99Z/uL1H+yfH/aAqE4zMTptMkZmOstoVnKvlZnVv96O2HExFCMxGdPdnSpruukbiaHnH+n9RkREREREqlvFqg6Fe0pa/DS7jFInseKdX9pYLHCH2eXKwvjrzbAFY5HmPlmPpSHDMGrBSphsZMjvLikpkTW+vzPMJC5TuGW777cl69JvWs73xo92hwcwmn9wpxfu71Rqeia584mlMuZ/2DoIDjx8Pyk1Df7uatp+h83XKLV8zrCZo4P9Zf0GayZGFw/neqji30F+y0vhhjt8t02l9UKX4ojCEEyYMCS4HJy+/RyN0U6pHLtuirvN6O54wS8f3m+UWubi9R6j46nSOmHoSGCyG2nJXAmMHIpO3t9RanlK7/slf3e3FdfP4dst5vyWyWWXrWSbxW5diYiIiIgc3coPtDgZGPdG2y/TFnyavRL3O0/YizJHYvL1pTNJFRY6f5sp4fzGotcMd35PoJ8zelAnjHmp5Kl/rJ/4Z41/CBP7dUNayHJkPrEU6cyJmAzK9WN7YYazPmb0coIyVsiy3djSGR5mWmTWwcphzm+dMQoTHwpZt75/L28dxZDf/H3XQRn7SfE0WEqmurafUWq+YbbBkAme9RfuNzBjnA7zg4PDTZowpGp/R/h9JtxwR5n7Z0UNwbBRE5HOY9Q7L68FS9HtJTNP7iPp1wNud+j+HEanMfOL123RjF4Y+zjnUwXHUwV16tILC1iKx5g5bSJ6lUSdjDD7Tacu6OUEbbOmT0avUcA0u5iZWAlnH60s83tLnUPNerGB6bD7soe7zdx1lV4NwR8RERERkVquYlWHnD8Vy1qNpXAyWe6NvFvio7JC589i+JyfGX53ddZb8WRW0iaPRKbPcnQaOhL9Jk7DTGae7PoIZkqGTIigik24abHH+1vTuh0eMPH7e3WuI7/5+62DsvaTql5Wv+3H4d75lrUNXOF+g60qUk3r2xVuecv7HRXZPyMwZIJzjA6bFlw3oQGXfiMxlCud+4i32/4xAt7SF+kTgaWrwwdIyloH3m0ezfzLw5JSdh5ZWL10FIZ5V2q4/cYGqJZitfkhmSt7Ydjd3bCUkRaO36tLcB+tLPN7S51D3aBh2GXycLcT8feZb3BZRUREREQkvIpVHfITejNfm9rviIT395Xb5sIQTLDjDsM0m4k5Ak+BM1c6T62PlDDr4EjtJ1Ftv3LU+n29ivdPlgAqmuEEHWKEQRZvGzBVWUKrwpygyczpmNxr2OH7RJj9Jq0bsDJzJqYt7YY0tvWy1Kw3c/z2KhWpqSK1fl8WEREREal5YhNoscXfx8KW5K8Odn4lDU+yyL1vUCFWpWrCCfnddjlGmQyWyRSOto0dMEObiSf6mczX+uA4xUKXLdy0gr3Rs+2QeBrnrG5+6wBR7idVvf1CRbINwu3rtjHUML+tqn5HuOUt73f4bZvK7icMhJSqnsQSJVFWffGsJ7vMTncxT+mKw/5e1cdThIYM64Wx6WMPD5KE228MlrbBQw9hKdt0Mf/YO20a0C0m9YbKUMYy+Zo5DRO9JVxERERERMRXjEq0mAxb5hNYmu4UQWdyG3isLJMRKN1GDBtsNPNjGw1pwWHXr+x1+NPtTmNwv9NmRNW9/rb0705juxdsANRkYMzCOcubhskjX8KYts5XyLtsk7Y7A8NMq8JKryNbLcD5S6XYkgWsYsDtUkZJCL910CmK/aRatl+oSLZBuN8QbCvEO9zGHar0d4Rb3nJ+h++2cf5WUbYkRrozTZNY+uSlKEoOmfX0EttRcb5/2DHN9dir5FxQ6u/VcjxFyFavCak2ZIXbbwxuD3NwjnQiGOyduLRbNQQ0ylgml/f8yyaIKlsaTERERESkDggUsby4HP345pxpw1BUHZnNoxHX30PdStp2ETnaMajKNou1z4uIiIiIRCV2bbRIjTPT8wpb+zRaQZYKmBl8ZXP6UjwRTQkNERERERERqZNUokVEREREREREJEZUokVEREREREREJEYCe/bsUYkWEREREREREZEYUNUhEbFmzZqFwYMHO30iQjoupKbSvikiUjfp/F87BLKzsxVoERF88cUX9qS9e/duZ4iI6LiQmkr7pohI3aTzf+2gQIuIWDppixxOx4XUVNHsm5NWJTld1e/GrrlOl4iIxEI05/8PP/zQ6ZJQ559/vtNVNUoFWurXr28/Dxw4YD9FpO4IPWnrfCCi40Jqrmj2TQZaercocPqqz+Id8Qq0iIjEWDTnfwZa+vbt6/SJ68svv6zyQMthbx3asmULPv/8c6dPROoynQ9EDqfjQmoq7ZsiInWTzv81z2FVh9wNdMYZZ9jPWCgsKsTTnz6N5xc/jz0pe5DaMhWHcg5hz8Y9OK7ecRg3YByGnTTMGTu2jtZ55+fno6LtGAcCASQkJDh9tcOCBQvw9VeLbHfDxqnofWo/BIqiezpXiABmT59qo75x8XG49LLL0KZNG+evsTH3qafwzfPPo97evWiRarZ3bi427tmDescdh3N+8xucNKzi+1pBQQEOHjzo9EWmXr16iI+Pd/rK5lcMsaLng7i4OLt/RrOPcjn5G48GycnJ9jjzysnJcbqkuhQWFtp9sTJieVyIxFI0+2ZtK9Fy6NAhTJkyxXYPGTIEzZs3t92xUFBQiL/8ZTwGDDgbvXufZM/XNQHPV4WFReb+LB43vJqPF6+tXfdptVmuuVfjNTsxMdEZIhWxx9zv7jX3v1WhadOmxaU2JLrzv0q0+KtoiZY1a9YU58e4T3bo0MF2+6l0Gy3Lly/3v5E1JyxmM3ILcvHEV0/g/f3vY9DgQbjyuCuRYv7xhLYtbxv+texfWP/5etze5XaMGTIm+N0I1dV5M8O2bt06NG7SxM7LcuZbLLTfY9euXWjXrh1SUlKcIeXbvGkTFi780vzmAJLMTUmrY09AIYM9zt/tvDhP08HfaD85NPif7Y5LiMN3G9Yj19xAcZx+/ftHfPM0ZfJkvPrqq+jerTtO6vMjpF92VVQZKC5DfmE+Hvj1nTb4QNdcew169uplu8tT3vYuMBfpr/7yF+xnK+AXXYTjrrgc8Q3qo6jQ7Atbt2LLv/6FLHMTFbjsMlx0553B70bp66+/tsse6Y1AXl4eduzYgbPOOssZUja/k3ZF/fe//7Unnl4Rrt9vvvnGnrguv/xyZ0jkGDT86quvnD7D2SaR4I3tzp07K1V0cN++fcXrzA0ssehmgwYN7LIxeMSbD/Zzvyd+sj81NdX2H5WKDpm0D4iLXQYpWlvNscfzXGXWc6yOC34/L7/A7BsHURSIQ3JiApKSEtDM3DxWNc27+ue9c+cP9lp9IOeQOS8UIsVcN+uZfbF582ZRXbvKEs2+WZMCLd9++y3mzZt32LWsVatWGDhwoO1evXo11q9fj2bNmtn16F7Hli5dihUrVthuF691nTt3xmmnneYMKRvPya+9Nhldu3Yx01qFE044zmRCfoRGjRo6YxwZn3/+pcnw5+Gcc/ph8uJCjOwdh0lzvsPAHs3QttXRl8HkdZL3srwOh+K1lNdJ3kdUdeaaDy7nzJljH/YMGDAg4odTVY3HNd8sw2Ogv7lfdu9da7L58+dH9YAtWmeeeabTVXE8n8ydO9feu/H82ahRI+cvtUs0538FWvxVJNDCPAOv4Qz88dzF9c99nsepn0q30cLjKedQjj0hcsb89KYH338Q/9r4AvoP6o/+qf3tDn5Z08uwcd9GLA0std95bcNr2Dx7M167/DX0b9/fmXL56uq89+/fj02bNqFL167B+XvmS/aT/bbP6ffgjcqxxx5rM3qRmvX++5jz0Rxs2rwJ5wwYiJHX34yGKZ6nQJyl5zO4TMF5x5lPBmj2HjiEiX8fj+82buCYSL84HWefc47tDme+uRlbtGgRMjMycULbDjjnggsRZ25aE+J5gxbhyTw+Du9Oe8ucTBvgu/XrUN/8bt6YRRNoKW97v//732PTpEm44Oyz0Py8s8ySFaAo33zP3F9yKblOtr3yCqabjN8Vr72Gdv362elGgzem6enpTl9k3nnnHXPTVvY6doWetCtyPnBt377drmM+lWzfvr0z1B+LOvKGm8GIsqLC4fC7e/ftt/vYYduGI4R0e3H4R+YCxJuripg4cSKWLVtmMm9J9iaIT16ZWVi1apW9eHM4b+q5Phh04rp84403bCSc64YlqsaNG+dM7ShSuAtx+/+MwuRLgaTTnYHVj5k1XgBbtmxZ4SfilT0ueCFet249ftifj5yCBBTF10MgLt6cHw4iKZCL1BSg7YnHRxX4jpTmXf3z5nlvzdpvcSC3CPsLUlCUWN9eDwvyDiKl6AAaJBXhxOOPQ+PGlb+5j2bfjCTQwvVWWJCPeHOaLDBnzDizznhOrQy/QMvmzZttxpbXhm7dujlDg0FzN9PD3/Tee+/Z4/f0008vvo7w3Mn7KRfvhXi+TUtLw8knn+wMLRt/5+TJb5rzdfDVqN99txnLl68w90QNcdppPzLnixZ2eHXiMk2Z8l90797FXCu6o6CwyNy6BPDaZ1uQ2iABQ05p6Yx59FiyZIk9Xpo0aeIMKY0lI3gN7dGjhzOkanzyySf24SMxOB9pwK4qMQPI/drF4A9LKZR3P1VRvE/57rvvsHHjRhv8YikvrnfOL5oAD+9TyV2fscBl43JRZQMt33//vQ2y8P6LeH7j9u7UqZPtr02iOf8r0OIvkkAL970TTjjB6QM2bNiA448/Hg0bBgPzDNjxOuQdx/udw66g0dbvCjiZG5vMzUTxp0kbdm3Af5a+hsKehUhNTMWK/SuwZPsSnNjoRNSLq4flu5dj5f6V6Ny0M/b02IM7Xr/DmWpk6tq888w90prthcj6vgB7DhYWz8+bseRy2M+Q/tAULd7s8GTHpy1F5oYgwdyJfZ+9F9tM4uf3u0w30w/Bzy279mCL6d7ywx5s2rkH3+3YzXiHmU6hnQ5TIaMX5eDO+4E5QXCHPva445DWuRs6demBdp06m9Sl3NQ+zaSOadixfQu2bdmMRHPRrsjTirK29y5z0C2fPBk9zWpt3Pt4tPzxT9Cgx4k4sGoFDmYvR4PzByDl7LNRv3Nn9DAnxMl3RLevefGmJFIct7JPZipa35MZ25UrV9qIb1nVnex+YPYnZogrcwMRb3Yu775fnNxtFpLincTuyuANGoscM3DJ38wbR/5uHi8MHLFEEUuQMQPB4Qxycjy3yhrHj5VDJvOysH9/ZPzyl/YYDYd/4zgcl9+Jufx1iDvwR8QnMBh6ZJ8MMgjHffCHH36w55JYiea4+PqbJdiypwi5DduhUasOaN3mOBx33LFofmw7xDftgB15DbFs5WobQI81zTs472Oqad48ny3+Zil+yElETsMOaNyqHY455hgc1+YYtDy2LeKbp2F3YSNkZK5Bdna2863Yqug5m+fh3EM5aFWvCGd1bILkggPIOXgAheY3VQUGVBj85E0rj1Em75NlZr779euH7t27l7o2MNPnjs8MBTMZvOmNFq+NPC/zs23bE5CefqENcsyf/zmmTXvH3Ch/54xZPb79dj1atGhWfH/2s/8E13tSQgCJCfHYsafyDQrn5eWb63GOWW8H7b6/d+8+c53aa9bhnuLEfqZ9+/bb61hVYkkSYjDFL3Gf9AbVqkJmZqbdp7gfuIn75JHEEl8MsnC5+JS8RYtg4I/HNe8rYs0Nan766ac2yEIMRPAhJ0snc3miwW13nLlfj1Xi/RVFE/AJh+uQv43TcksZL1y4sMz71Nqkoud/8cd79tatW9taDQyoZGRk2PMSg1o8fzHxgQ33KeZjOA7v63mfz4ewVCqXwYsWMwPRsBkbJ8MSYDL99tOkT7LmIrthNvLq5+HzzZ9j8ebFWLZxma3CsffAXnyz6Rs7bNH3ixBoFcDOhJ3YvDvyG/+6Nu+5q3Pxxpc5eH9Frhm/MDhPn2SXyWe4m8j9jBQvuNy5jjcnPbY9kxAXQPtjU9HBJPfTpjZNzWdTdLQp1X52MsPaH5NqvsebueB0mMxEnamXrUe37k6X+YpJObn5npRXZjrE6FQMcH2F295r5s5FI3OhapiUi13r52Dn2qVoduH1yB/YA42GX4eW/c7Gtws+xL7l36CV+V68yXzvrmAGNycn1wa7ysNxOG5lVOR84MWb6MaNGxdfuP3wJsd98hHtPlmM2yJk+7jdfskNsLjdfMLBE6M3vf32287Ey8ZgFp+wjB07Fr/4xS9sBJtBlHCJGYI77rgDv/zlL3HFFVdEFTgrCwMmXw0diqYnn4y9X3+Nlf/v//kGWzhshVnObHMhbj1woP1OLIMtRbmLkHBoovlcgqKCqslIRoPnLV4IefPMG/a1a9c6f6m4aI6LRYu+xqFAQ+Q3Mhn8uATuqsjLL8SBQwXILzBnMw6o3xK5Sa2wePE3zrdiQ/MOzttcqpCx9QA+X7M7GNyv4nnnJaQir2Hb8L+7wTE4lHKMuYFbFvOMbGXO2XwIYgMreQfx6quvIK15IpIYbMk5GLxeV4EuXbrYYzO0KpCLgRBm2vxs27YNWVlZFX7CzfP/9oPJxcEWpjZtjsUll6Rj8ODzsXXr95gyZaq5sc6qst/v4n7A+bAKkxt8uLh78Pa8wOw/3U9sisXrKn8+3blzlxNQ2Y3s7D0m7cYPP2TbTz4w4O9kKRIGYBho4mdV4vx4XuZ+65e4TFUZ7OFv5T0I71WYUWJiAI+ZKc7/SHGvU6xGx1LMF110EXr37m0DuW7JjlhhadsZM2bYB0IMarCK0gUXXIBzzz3Xlmjh+mcpFVZdjwa3Ldctl5fdDNaEbkv2c3is7oPKw2AKA1UMXPH+a/jw4bYkHNcrH4rVdtxnK3PPLqWxSQOWROeDfre0ZNeuXW3yXhPYzWHuvnTSSSfZQAyHMT9x2ONcFk2LpoE/m+F0UqknySZl7sxETmoOcrbm4NFWj+Ifnf+Bf/X/F1rUa4EB7QdgYq+JdtiP836MwtxCHKp/CEs2Rf6Et67NOy+/CK1T49G2RQIapph5OZlFN7nLQ95ucvuZVm/Nx98/3I+nZh/A0u+CF/Xy8ITInYmJmbX4+ACSEuKKU6JJCUxmj+KNrfmGvanNMzsdAyKHcnmjyWLJwWnY6YScdMvDyXL9NmmQ4kn1QvpLp0b1/G/SouVdf6Hbe4c5sTU5dBDx9XJQPzcTeVOHYf1nb6Dndb/FcWem44PHxqLhJw8jPmE9AuZ31zcX803m4IvW//73P3si5ROpnJxD9oaMgSsXuzmMfws+tTpgv1MZ0Z4PvHiR5omKTyRZHDcUL+ysKsSb7EiLfPux+4Wz/9ttwm7PcWGTMzw08TuMVvc+5ZRSKdLSNfw+b9Bd7OeNA4NLbmI7A0x8SsYbXI5jl9VZhsrK2bwZXwwdimPP6GXX9Y9+egNyN2Zi2S9+USrYwu6lt9+O3PWr0Pf6n6Bz27Zof/kQ+11Oo9IOfWAyZm8j/+B8FOWbmxbzG48k95zFdczjgv3cVt7i2BUVyXGxYcNG5BQA+xLbmIsvA+NFOGDOg/sPMeNdiIOmOzePTXSb/bdBKyQ3bm6Pl1jQvEvmfTDP3EQfKMKWPQE736qaN6vD5JrT8b7EY8r93fENWqJ+k5ZYsnRp8MsxVNFzNo8VlmjJNRlfBjEeeOD3OOmEJojP249DVRhs6dmzp81QM3Pr4nmS51FeI5g5YjeXycU68nxaWNEqnzz/7o9vhSlLG+K9rMbFAR0mniNYsubUU/vgwgvPt4H4119/0+wnS4uDILG2YcN3aNKksZ23u56vOIl7ClBQVICmjZKx50CBSZXNkLIdgVST0WxurnssWXkM2rY9Hp06dUBS6vFYtfcY7K/XCe06dLJtCXH8qsTfykw2t7Ff4t+YcakKvB6wOsWJJ55ogz3exFJovHeK9h41VvjbyVvCy+12/xYLXLcs/cDPH/3oRzaww3sy/n4+FDrF3AsxyMMn9rxP43EXKY7L73FarJLEKtXEY524bbl+WVqFf68OLOHK+wGWJuR25vHM45tqSoPYlVXR87+UxhLQ3nwArxEM0LmB/2BeK3i+YLd7r+lWg3QD123NfXapu3xGYNw6XpEqzjTw08zEm4oamJMUzw3B60W5CuubDHhS5BfzujjvQ+ZG7WBuIcx9XPEy+CUK15+cCLRKjTcnlgA2/hDZRYyZeJ6MmfJNys0vQNamXaXSGn5uNp9OWrtlF77dko11W3dj3bZssFHC/MLgNJi8QYJI8Rucd6QpjysqBtx157e965mDqTFnw+uH+czeV2SG269ZCUlFqNemCEnB0o9IMeMnmxQtBk5YnNdN+/e7NyQ5TmJx4IOlxqnMU5mKnA+8eFHjUwKeoHhB9d6ksp830YwU8ybaretYUXbbONvDBlU824nDixOH+yT+za1OxFQRnA7baLnyyit9k/sExTvfWPjCTJvL3+aYDthnbm5y165Dt/TLkLNuFebcdJMNsDDNNd05a5ajy/npyN/6PfaYjGHLes3Q4cqh+GLECGdqFRM4+B8kFsxG3t6Z5hhw9jlzsMblvYe4A382f3/VXJnWB4dXIZ5XGNDikzQ+7eaNHtcNcf/jMcJhfMpQ0ZvoSI+LnTt3oCCQZNsICZiVse9QQTDDbT6Z6T6Uz+qfwaoBKYkBc55oaL7zg/PtytG8E5AYb07J5vxvZoe9ufHYeYglTHj9C6BBSnzM580i20VxDUvPu4DXTZN4DJpxvPOOS2mC7d9vD345Rip1zjbHAx+E8Bgi3mg++H8PoE+7pggc2meDMFUVbOHTej5pdp/kMzDPwBV/Cxuy5nWExzMxCFPRN0W4uB9sRBdzbgDapgZLvDF5zxVMnP/pp5+KYcOG2t/+xhvT8MUXX9rzSCwtW7YCHTu2t+ck97zkVh3iAyo+ZOvRvgUWral8qRZ7HfQkG9wpCmDxJuDk1gfQLOkAPl5dgK2HmthSyFXJzaiES8yssJRJVWCjrcw4McPvlmZxE4cx4+0W/a9urHZA7nWKy+OW+nL/Fgl+173f9ksMbrJUD0visjFp799cLOHDNkw4LR53kWIVCq5Ld1uymg5/hxtU4SeH83rs3huydA1LwLiJ04gl3osykMT5sUrUm2++aasVe6tnxcKugwHMXh2HUf9JtOnNxfHI3F6x+8poVOr8L6WwdJe7jzIRz5fcd9566y388Y9/xGOPPWbT448/btvDdIMrTByP1wleRw/b8tHW72JWoThTYz7dTA5Tvw79kGj+oQlwddbVOPd/5+Lc98/F1v1b8V7Wezj3M9Nvhj2W85idVnKDZBzfPPK6tnVx3sFAizkRmvsdztdN5P0M7Xb7id9lsOaQuXhHiidZdweyJ/78AjRvnGJSPSeloJnT34ypUT00tSklmBqm2O+403CnEzXznYOH8kKS2aEPGxZMLE0TC2Vt77Qzz0ShOYHvM/fr23ckoNnVr+HE/lci46278f3iN3DuL8cjNf3/ocic/3jL0MhcWJpVoE45D1oW+3WL9vLTrU/tJu/fOG5lbwgrW9+TN9C8Qe7YsWPxjTLxhpqlL/iUMhaNkNlt42yP4uCK02+Ts938EnmrEzGZP9jhkXKn452m283lyeENh0kHedI+FKz+dfoZZ+DFl16yGTAzYqnEG4JIpZrpZJuT+c7tW7DHZEKY9q7OQqfzL8TmDRl468c/xpRrr8XO9avR8dxBOLBxU/F4OQ3qYeOn85B6ekUbrDVLf+DviM//DHn75gT7yfyG/IP/Q+HBj1B44B0U7Z+AhIOPIbD/DygqKHkyHUt8gsYSRO7bnFhtjduSx4C7XXneYYDPDbbwRrAiIjkuWBy/IL4BDuSZTJuZ776DJsNkbmAPmpw/G7pkZpylAZMT40zGOw5JDRrb18HHQl2f9yFzrZmfsQvPffoD/vW/A1i4OQ4b9iXh2S9y8Ny83fj3/C1okBTbefN8eyiufnDeq7fjubnb8OLCfXhxcSFeXhKHl748gOc+24F/f7rRzrtew0b2oUWsVeacbbL59p+LJfEe+cPD6NuxuTmW91RpsIUNNTLAwptbHqssacAnikzMBPKY5bHMdrEuvPBC51sVty2vOfYeLELPYwvs/NzzNjOZvDdxzxlMfIp50kk9ceWVw0zGswlmzHgfc+d+Zrd5ZW3b9r2ZfqL5fXyiHrzPouKqQ+aGjVWgj2laH2u27jP3UZVb/+51yf1tvNYs3xaP4xswQF6EhkmFOPX4HDQ292wLt7XA1r3mgHWs/D4B3+2O9+whlcPzL9c3t6tfYmaloufosjDzw0w9g0xuRio0EfdHjleduD7ckhesBvL666/bBvRZ8oLBAB4XkeI65LkgXGKQgU/cuQ94h4dWE+I8mYHnunDXTXl4HebTfX5yPZeFxxczqbxus4Sxm6oiaMDzjFv1g/sXfxtL8nB9x8KXG+LwwIwETPm65De/vyoOj38Yj5cXxiO3IHieqSqVvWeXEjw2uM9zP+FDa65bvuGUJfCvvvpqXGvuq/l52WWX2TwOS8ExT8PxuT/zAQH3r1J7FicUdf0unrTNDmpP3M4J3CYzbFC7wcHGi3j+5pyYd2BbRtzP2M0SOPzkWdscuyxi1rNpT9MToTo4bwZHcmyJluCr75jI7zO02038rg205EV+wfYGWlgShRf7g7n5JuU5KdhmCoMeJe2nlE4sXVIyjYoFWriuU32qCIWrQhSrqkNmxYXd3ieamz5u733mfj3QNBUtOvXEqufHIu+9P2Pr+Guwc9EbyD/mTOz61m5uu72b9ix/e7MRJreBMh7cXGe8sWNmgondoYGW0L/zO/wup8FpcZqRqtD5IASfvnAavFliQIWZXE6XNwy8oeCyVeRNQ6G4Hex28X4624vJjuN0hyb3htObgt+IDKfhfoZ2M3E/d6t78YlOfr5JBSVVWbgeQhNL+UTqpD//Ga2HD8fyj2dj354dOLB7t017l6/GgLMGYP3GDGz+Lgun9z8L+7O+Lf57XnIAi994FYkdutppRK8QcfseRHz+YhtUKcZ1UGR+R24WCnIWmfSNTYd2v2ZOYJ8gbu9dKMpb7YwcG7wh5k0ln0zxAuc+CeX65jHgYgOQ3P948eTNLBs44/qORqTHBRtojmcRNzP/HftMhsFkwO1ws3oSzf8Szd8TGHQw3Xy7SHK8yeJ6lrUy6vq8OT2WKmxaPw4tGrDKULDaReuGQOtGAbRuzCoisZ03zxv8fXbe5hhoWj8ezRvEobnJKzRLKUQr0926YTxaNwnOOyUhYFZRbAMtsThnh2KA/E+PPYrTOrUwx3nVBlvYPgSD8OEyc7yGXXLJJU5fxe0+CHO9TrTnYAb93PM2+0OvBd7E83VaWidcfjlvrNvbYMvMmbNNJrjimfEvv1yELl3SbHdCQmLxui2uOsQSLeaeiyWkurVtgYWZlSuB5f09zGAfzI9HxpY8s38ywBS8LeV6OK5xEQZ0zMeWvXH4KCsZe3KCx8u8b+Px3qokcx8ZnF4k+JumTp2KV155Ba+++mrxJ8/bPFd7AxzexPM3x/n3v/9tv+N+fvbZZ86Uo8dp8o1XvFbwGlFWYqkW3qPwO9WB1yJek3gtY/tFLGnCfY73lwwOsO0Ud1+tbgyCEM8x0fIuM/ctP9wfmTH1lmjhA8NY4z7PYAvvO3lPyrdy2vxaDKzaFsDE+fHmmgdc3KMQ9wzKx/8NycPP+xWYa0ERPl0Th1e/LJXtPkzcpk1o1Ls3mpj1nfLAA6yD4vylfFVx/q/LeB/OB3Y8f/F85DZQzftInh/c8xS7eczyWGVVZHbznMGS+nxYcdgWj7Z+V6lMJ5N7EjfdyQVJuOa4a5DYOBHgg3Uen+bk/PmWz7Fq16rg430OM+cwRi7vSrvLLFDZO6FXXZy3t+qQi/N3P/0S8eTmJgZacsx0ogu0mHk6mUC36tCmnXtLpx17sdnp3rxzH7Yw/bAPW5l27TPfCQZY3OlwmtHi8vOmOdLEUjSxUNb2LkpJQZurrkJDk3HbMHUHZg/ogy0vjcfeHcCyF/Px/unXYOGAnyDBnP+4vU889ljsnzXLmXJ4fLLHopPuQcsWrVnclQ2TffrpJ/j444/NDcNH+OijYGI3h/FvHGfBggX2O/wup8FpucU2IxWL+p5sGMqtHsRAC6t2MNjEG6iKvC0ilHe72O3kbBfvcKbQcctKkXJvGrzfC+0m7isJJnfJE7FvMn/39keDv7fv3/+ORmcNxsrPP0PugV04tHu3TTnLViP91NMx5Een4uDKNXZYnrkYJx3XEktnv4/EzifhR3/7m51G9OJQFN8VgXhPUWb+XgZZ8jaaz8OfROYf+AIFBxcg/uCT5u+xuYniPsULHdcbL3rhuAEYF5+iMdjibqNoRHJcsMh1Snw+6iezJI3J0JnNyjY6+MY2BhrYnhWDDSzhUc9cKuIKclC/QWye4NX1eackBXBi8/q4oGsDDOyQiKbJufb8d03vZFxzaiqu6NvCLldM592sKerF5QTn3bIRLujeBAPaJ+HCTsAlXYpwxcn1cc3pzXHFaccE522OD5bSiLVYnLND8eZ9/F//gjM6tUT+wb1VGmxhxodtKIRm6NjPqpexkF8YwMG8IuzZn4O3337XpOn473/fMWk6pk5926a33mLVgmk2vfHGVEyZ8pZtq+U//5liPt8w19l59rq6fv0GO5zd0eLv5DmJ7bMwU892UQoKgqVwS6oOFeEQH4yZ1PaYJli0pvKBFp4rmeHk+e/D1QGc3PqgvZbxnsy9plG8OVZ7H1eEfu0L8fnGZGzdG4dhPfLM/WMR3l9tDt4I8RzLJ728B2BbI8y88JPBDi5H8H4wON/gcgSrvBDHYckIfsf9ZDCiohis44MeN5PE5F4b3OQO5z7H5XNfWVyV+Hv5uxhc4G9k+yhsg2jEiBEYNmyYDQ5wWY4UN9jE/ScaHN/dltzfmEllyVNet11c1/xtbK+FJQPc5LZ3URswT/bKl+bEbow+swCX9SpA++ZFONb8hNPaFuK+C/NtsGX+t3HI2uG/DuNMRr5h//6IM+uHksePR8P0dK582x+JiM//657H8LZtMfx5z8sqOGz48wj/+oooxHJa1YznKuZT3HMlr3Us5eWWquQnS+QzUMfzGEuwMLn7OV+7zX7eY3JYqa3NTCBTtHgSdTM23gwOIz/je49H/wb9Ua9DPXOHZUY2+8vVH1+Nx1Y8FgxCmHN1/a71cVXgKow8ZqSdXjTq2rz35xRiz8EC5JmLrzs/cj/J280dxN0JeKJkYoCFDatxWpEqMjfMnJYbKGGJlvpJiaVTciLqJSeY7gT7mWI+3ZScmGCDHqyv7k7He0GPFL9ywClFw8/SKf+wxJI2scL1Gm579zGZ1cbm5NaRB2LWQaz5BFg2NRhPO2DW/UkmNTHHVuCqq3Di1KlocNFFwYmWgRd5TpvHJA9YFqWcNYs3hW+Zm7/JmDz5Nbz2Gp8MvWwTuzmMf+M4778/3X6H3+U0OK1obgYrej4IxbftsJoGb2B4cuIysJuvDuRTm1iw28KcFL3bxh3ufoZLfn+PVuh0vN38Z5+0O0EUJnsCd07ioUEWpmjxt5/+9NNofPaFWLVkMQrz9yGPQRWTCpdmoGB5JhKbN0cC3+t/Ymt8OXUKGp52Dk77+98rGGQJKqp3FfLjz0RCQ3MzEEiyB2hh/mbzecj89hQEElqa6ZdusKqoYCcKc1eak9kLzpDKYZFqXvh4jnPPLUxc91yX7o2h+ypf9rNhPp4L2aK8+/dIRXpccL9H3kE0axCHNk2T7GeT+glolByHhsnxaGA+65tMOdvrYIaGb3thADIWNO84tG6SiMYpATs/Djt0YC+Sk+JRz8w3OSH2825nbloLc/bYUizeedc386tv5ptirvnuvOPiTOZ5b7Z9i18sxeqc7YdP6p7+25M4vVNL5B7Yg7zcQ/Y4qwrcJqzewfZYiNWFYvm76iexVK/ZBoVJ9i1Dl1xyMYZcPBSXXTbUZA4utYmlVq64YhiuvHK4yexejpEjr8DVV1+Ja64ZaT5H2M+rrroCt9xyE/7f/7vFXl+j9cUXC9GjRzebAWUVCwY63HXqVh1iP0uF5bI0c14BOhzXHF9lRt4oqde8dUmYtzbOzo9p0+547N23H42TndIsIcnVIDmA9O5FOLF5HKYsScKZ7fPx6ZpgwCoSPBfz2s92d7hNmRj4ZAab522Xe0/onsP5N94HcVz3exxuj/MKYJsrnJ57L+yuay93GD85jlsKMtybsWIhNMjCFwlEe13yw+sfA1XhEvF+jMeW399c3A6sZsRgiLeB3rIwmMW3ORG/w8AK9wM2fs3tx2rlPGbYNlNVnbOq09Y9AWzba37fsUU45fjD96sG5vbo8pOCw2evisM3mw5Pufc/goDZx/MuuQQ5jz2GgpNOQvyXXyLpP/+x3ytP1Of/Ptei6/Sx8MZaYqbdTZg69SYE3ylafZjXCKesv7kYBOSxxyAf22nheYCJ5wGeh3gu4N84jhsc5P7N48jNZ3Nf5984zmGN4VK09buKMxNMZqKl+k1KiE/AO33ewfAGw5F6Vioa9m+IuD4mY9HL3PCcVw/HnnwsHjb/bml8izPFyJWa11E+71//ZxNembcVX2Ztx8K1e/H6NwGMejYTN0/MwCiTbp6w2qaf/3MVbvrnSpPM5z9W2n7+nWm0GZ/p9cUw09hjp/XKZ1vstMvDNwi5O9yO77dj+dLF+Hzep4elL5jmf4r/OWnh/M/wvwWfYaFJK5Z8je07thVPpyKBlrj4YNUhpqbOZ+mUXCo1rh+blsRLbV+f7R1nDqpTpk9Hg2HDcHZqKvqZm6beZngPc6EbaC4mh8yNY+Chh9D4lsi2N59qXTDofAwadAFOO+1Uc3HqgZtv/jke+L8Hokr8Dr/LaXBa519wnr2oRypW9T1548ATGLc7T0oMsrBaEdddLHgDXy632x3u11/WsGh5v+vtjosryfC7ybYJY4a5QRZvNz8rgvtl/2eeQZNzLsSq1auQV2huYs1Jv8jcUJuVjs2ffooN/30dS6a+iSZnDUa/p5+236m0lKHIiz8P8fX7o7BgJ4qcxnAT6p+FhEY3IrHJKCQ2vhzxKSVvlio4tAIJRavMnXUw+FFRLBXFp6Qs0cLzCfcvBhYZeOGFjtuAN3PuDT2Hcb/juN26dXOmEr1IjgveZNavl4TW8TvQtkUSWjZJRpP68WiYEmczLg2SeJ0I7iPxeXvw/dYt6BqjwKPmXTLvRma+PzoxARd0NvtFgtkvq2jevPlKTkpE64Rd5f7uRHOMbNmyybY9EmtVWUefjWE+P/EfOCOtJQ7t32POL1X3+l2+KpNVXqdNmxbTEjpvflOIW6bk24zPofwArn2pANv3Av9ckIw734q3JX45zg2v5kfdHQ3euO/YsdPcqB9jz1E8d+Xbh1HBzFhx1SEznA/W2E4LS7Wc0KoxPlsRXTtX3ER//xj4zcxUPDyTb43kK60T8J//5eL0493SLMHtaOdq/se3Zpn/2X737x1axKHIDGmQVIQGiUXYFkUTNWeffbYttcPMCn8ruZ8u97rpXieJ53Me18z8MxjFcz7fhBMtBmlYypfXAF4LOG/3N4cuh/s3fnJcZqJYOpglkGKtqoIsxPXN61y4xCfyXJ+8N2O3Ozy0Ojfv17icHM57lEh4tyEf+DGDynXKYdym7t8YaGGGtrbb6OwaLMUSTjvnb19/F8DTn8YflgoXfWOPuQPPP49DJq+Qc++9dvz4xSbTFqHozv+dMPqOrnhwAtvXC+GUeGGgwCandMq654eXHmZLrtyDe4aXjHsPJ1eqRMsc3ON+x/v34mHDYxLs4bnl5ZdfxiyfGgMcxr9xnLLwGOcxH3qOYACF5wHea3K4N/G4OO+882xwkedyntsZyCb+PWAmWmqvcDdQpBc2Hsi8ENiMDg8s50TpZjK8nxk/ZGDKlilYm7MWSUVJON38G9aJjYs1xcKFC6N+ul2X5n3bS1sxov+xtu4fN3xCnEksh12WMMc7GyYstE8ieONnDvpvs3H3hWUX0XvrzTcx/e13nL7YGHnVVbgofYjT52/K5MlY/HXwJJOQmITuvU5Cbk50jaMlJqdg4YJPi4tp85MZr2uuvQY9e/Wyw8oTzfb+ISMDeWPHYlOrVigyFxScfjp6m/WXMGNGxNubbXgUmu1Ur15JdPqvf/1r1K3g8+nBL3/5S6ePTy8OBDPz5iYrFIu7DR482N6QuKI9H4TD9c161WzYkOtozZo1OPPMM2PyJIPbhru6vbA728S7Pbzd7onRPXly2AcffGB/txd/N294ynOV2YdZrJeNYrnzchMFPwPYf2B/MLhikt1/3GVlPz+Lxw3iW3MqUq2K7UPMve02/PDxDHRqXA+5GaVvyJO6HIOs7INoNnAIBjzzjJ1/rBTlfo34nInI3z/LllpJbDgIhfV/Y2ba11xtdpmcxZOIK1iFvH3v2fETGw42f/9/5u9n2/6KYHsOvLDx4ke8EefTBFuFxBznvInkPsZioLzBZlCGw7kfRqqyxwW3Zf0mzdEgtSX25XDfMzdOfO2OYdsoKdyP5Uu/xim9T7Y3ndyfufyxoHkH580TBNtFcZehqubN88pXi77GMcediIbNWh/2uxPMZ3z+HqxatgS9evWwmY/KzDuafXPSqiT0bhE+yM4SKju+34q2qfH4bNY7NsgRDhuP/PGNN+GLzB1IadgYiUnJpc5fXot3xOPGrqXbGWDJBgZtLr30UmdIadx+PE7ZphiPbVYnYmaQr6D1w9/M8wAbKSzL598GG6u8oKs5T2YG8MmaeHRpzbcExuOUtok4ZK5TV5wc+YOIyvj440/AqkLdunUtzryyGhLTgAFn28DNi9cm4Mn/rsB5fTuZC4Q5VxexxKZZp5lbcHLb+ujZrnTJg3Dunx7Ayq3Ad+Y0nGd+3l+vqoem9QNYvm4Xzu2QY+4DeU8Qh3hzQ8h9Nd6sD/uAwCQ+BEjg38znsi3A/9bkYcQpBfi/mXEYdWZRmRnLUNxPJ0yYYEsUcnsxw83EY4DnZ3tdNMm9TjMx08Ki/Mzk8PujRo0qflVwpHhcsn0Xdx78dDP7/F389HLnTfwuS+ASgw2svhZpsKE8VRlkiRSPHbbDxAcQ/fr1s8vh4vKxJBtL8/A6yvaR3AxkOKxmxXV76qmnOkMiw2t0uIZ+mcllQ6PcZ/r06eMMDc/NFJfFbcuEgaWycJ7l/WZavCkOz3waj/M7F+KqPv7nkA27Anj4/QS0bFiEk9qUDu5R+t2X4fiv5uDgH/+I/KFDUc/kIxJmzULOo4/i0K23OmOViOb8z1eZs/pZMQY6xgJPTL0J397TFrMGr8ej7d1hHTCh7Y3momGGDfSM+wQwdkAW7lj/KDh4zj33AKM74akB0zF07lTcxOIrc+6B/epcM9xO63x8OHwAsu5wpmUx8DILg53peJelsiVgGEj5v//7PwwaNKj4vp5BltmzZ+P3v/+9vQf0Cn2D3eLFi21gl/uwe77g8f7uu+/aY4D7A69DLMniPsDjOEzcHrzn5H3p6NGj7X7I88hhgZZoJZuLITOEnAkvtO4nhfskbzfxIIo62FGH5n3by9txQusW2HMweAFgo2T1U8I39FrI9k/Mlg1u3GCHu6Ftw7SF5mRuloVvP9i2cyeevq7sV8a9+cYbeOe/bzt9sXHV1VdjyMXpTp8/b6CFFzw3gxwtbh9XhQIt1by98/JyzYGebJfVxZMETwIuXhB5MvDiDQEzDi4Wz+RJx5WTw2o7eb4XDr+Tdixwf33ooYfwm9/8xp7UWISYN0rjxo3D/fffb2+yKsP9vrtNQhPxkzcNvPgyc+PeOCWZ7y7830KkhwT8+OQrkkDLyJEj7Y3Xj3/848Pmx8Rl4j57wMyX3W6wxS4rP0O+4+LTs2gDLQyyzLntNuyc+x568sk576oNPmfllItvDU9ojmXmbrv5wCEYGKtSLY6ivEzEH3wCBQc+RnxKj5JAi+vA88DBySg4+IUt8VJU73pzJxN9tU0X15NbooUXQAZZWEqAF0hyG9bkdudFkqWpol2vsTguNmzYaEu91W/QCPGJZn81maai/DyTuc3B7uxdaNignn3VJpeR+2a7du0qXDw+lOZdvfNmuzQZmVn2GG/R+hg7b1a9ZdtFe8x8f/hhB1o0a2r3zcrOO5p9M5aBFuKbf4aNvBaLNuxFg0aNzc3o4cF7qmighe2JsZ0KNsL59ttv26felQ20PDQzgHeX8f6I1biKUC85Ht3bxOOEZnHmvqgIp7T4Dgm8UzInTHNmtp8MbLjdPEXznO3FV5jvPlCIi/tGnvnnDTjbeWHVJPcazmEMsvAtROeccxYmLy7EyN5x+Otby9Gr8wlIdM5pLBXFNyquXrsRv7i0/GsUfb8vgNSUIlwyIYDHR9THxLm5trrQqB/tNNM11yWT3GBL6CczGQy0IBCPP8zMR7vUPMzNNJeX3QH89sJCbMwO4Mrekd+XMbDAjA8zM9xmbobGvV4S7xl4vWYmhudvrhu+VY6ZRwYDosWqZzzWOR8m3v+487W/z1m3Ls6X82QAhPcLvL5wObjMbJSWjTZXVk0IshB/K9v4YxVcrgvem7F0Hq+ZHMZP3oeyvZhIXi0dGmjhuuM9GudD7rrmtLk+3aAV10O4akncFtEEWtjYPbd3LPB+IpLfvfcQcNfURBtEeWBIARJNHi3Uf5eaDPvyOBuoHNTl8EBLgll3DYYOZWbHGWKOBXPe22fOb0U+6yaa839ZgZZ23kCK99MNfBSPGwzAvIprMSlskIRBlKfQ6ZWhmP4Xn2kRvzPgQSxyeoM806wkb7CFwgVZKDTQwusyj0OeI9zzBRNfBc7jgPsyz0N8WMdzAq/fTLym8RzllhD7+c9/bvd5plJHNS/6TNFwMxRucrnd4T7dEykTuyuC0/Im4tNpt9v7yRXt9lfVvMntDvdZ0Xk3qcd2T5JQ36QG9ZLNCcd0p/ineimJ5tMdJzHYRgrriCdzx+HFM95MIwUNOI4Zv7GZdnmYWeTyxjJFGzThOuQBUJFUWZy3N7nc7nCf/J0V2tdMpoCt3c+dO7c48YR/xRVXFKfTTz/dFvf0Jg7zjsPveKfx1Vfm1OZZ/rJU5HzghzfBPNnwJMcSByzayHXBosAzZ850xqocrm9v8mI/1z8v5LwAs+4/WwLnyXDR4m/MjVOXMr9fFlapCxU6LSa/fbK4hIvzd+/40WKQ5cPbb8eOue+jrzm+G323C7ws87Jy4MQW2H9CC9vNYY027kTfpERs//h9fPiLX9jvxkogMQ2FDe5DfP3zzH25z9PWeteZzG8HxMU3N8d/rtnNK/9kkPsS1x9vCPmWhtCbZt70cT/m/haLxpcrclyceOIJaNqkMQpMJn/Pzm3I3r4ZOQf22Fccd+rY3rZJwZtu3jjx93D/5AU/FjTv6p03SwJ07ZKGNm2Owd7sH7B5wxpsXr8Gu7ZvQ4P6Keh9Ui+7H1bFvGN1zo4EMz0M2h/KCVY9iSXerPKJofumE1Y7YYa3sn57URGuMXmNg3nAzv0ms7en0DbseiAXaJx4EMc2b4zWLVJxXKumOPGYpmh/XDN0PL4FOrdtju7tWuKkDq3Ru1Nr9O1yDE7u1MqWsl2ybq9teycaS5cuMxnrbsVBFu4D9obcuQ6QW3WI52cGQ1KSginZdLdonGJOtvFYszmyujutTOZvX24AxzYJ4Oy0BJzdOQH9jt9rzpXm2sNginMtKv0ZvC7ZUi3m87/fFOLs9nm4vHcRMr4vwprvC/HLNwP2TV7RYECB1QWI52pmaJh5cfddJmZouH9xuPuwiZndSEoQ+mFJYv4GN7PPbiaud94bcDi73e3AYcSMP0ubuYnfieaNgOFw+jz+j3SQhbgNmCFlYIR5A96f8e0qPCcxI8kgMEuyRBJs8MPSy8SHIGznxcWSSlzfLs4vVrjfuK+IrmzitCLRyIzW98RCbN8XwEsL45EX8hpnlniZuYLtkwGnmvH85J95JvaZe+K89HTbPkvuz36GfR995Btk8VPh83+7m/DE0OmY8KHT/21WSBDENRCPmu20fv1gzLJVfu6BT6WjyPT5HebaabkpNkEWYl6DgRXm+8sKsvhhNSBucx6jDAbyfMDEByEMaPGYZSkvVjFiP0uDcfm5L3Pd85PBWPd7vJbFjxs37gFn+vaEx4OMT80jvSF1n4x7Mwtuv7fb/eTCMzrJA5iRTkaC+NrfHSYDxPpN0QidN38siyVymvxxPJkzM8Xip6+99pq9UDPjGYt5M2LGokRcyZwubwh40eRbYbhx+KSVrRTzxDV9+nS7LOyu6Ly/3lCA1CYNze80GQeTj2iYHECjBmxoNnB4MjeSyWx0z9PdsF6iuWAWmot2gQ2u8G8czsb64k2G58xO4UvH0PJly7FyxQp7Q+WmMXf90pZIOfe8gTYNGHguzh1oup004Nxz7bAtW7eYHXMJ9pgddJ3ZRvy9/H7PXj3RuZzSHSvMxYjb0mvv/n1o1LiRLdLKm4TgZ7zJtLGUgNnXnP3t088+szev3AfMDIuLZ/PCwgOADWG2MifSSFT3fn4o55AtRsnEzCMTL8asCuQmPt3jkxVv4jDvOPyO+/3s7F3mN59klie3+Pd4MQDBlt65vFSR80Eo/m4ek1wXnM7ll19un5j84x//sBFgFhc97bTTSpXciRa3p7sdQpOL24EXej4p5Xpq0+ZYfLd5C9qZzBhPrDw5cpvxk/vmd99tsstZntcnT7YldPhmpdB5cz+xN0+mm/ubvXk1+6k3wBIufW/2k0hb3OeN+Oxf/AI7Pn4fA8yNf6ON2+0b5Jmy27fBXTl5+AhxuKh5Kppm77XD6+0+gONaNMeKNZnYunI1OgwZYucbC0WBhihK7IdA7hcoiOuKojhv/WtznBZtR1HeYsQntTd3RBebu95jnb9Fj8EV4jbj9uM28/4OBta4DzLTxuOuIr+xMsfFJRsuwW1bbsNjOx7DqsJVuP7Y6/Bq4Su4MvsK/D3nb3hi7xMY12KcHZfnI741jNx5sXRaJPtheXhtWhm3Am8X/Rfrkr/FiU1OwLH1S9Z7Vcx76p6p6JjUEfWS6qFBg/pmf25srmFNzA1PA3sj8/6+99EivgVOPenUKv3dfvN2VfU65zxbmv2uZcsW5vqTivom8+jyzpvnJ4p23tHsmyxZckz98AERltg8YK6tqSlx2LAmw56bw2F1yQHnD8bM+UvQKLUZUurVN+c0/6Dp1gNxh5Wk4c0qz/9+pTtZxZT3U8yAuudAHsP8DjPMvIkNxdIv/O0MnpWFh/8Z5rTTvH4+PloVwD6z2pISzPW6sAi3nh1A/eQEe69kU/1ENK5nzqfm0yanOyEhDpmbsvHp0k04rlkShp56LNof08CZQ/l4jZkz5xMMHDjA3hPynMRzF68JvJfcs2cfWrU5Afe/Z+7TzOXjuy1b0aFNM9RLToR9NbpZXgZe+PKBrzM2o09aZBlgc4rEx1nxODstEc/O2YMrewWrEbvVgkI/vaVa9h0K4NX/5eH60wvN9YsNexZh+RbgpRuAkytwa8B9lkFGBr95PPJY4XXc/Sy+djq4r1x33XW+9y3l4bWBVY+4D3Fd816E1w0eJ8xIu0+pOW9On/PlMnCbMODgcsfjPRW/Fw3mF95//32bMWMpDk63JgRZXFwvvD6yGg2vlUzcRryf5P0R10ek+Fpm7j9uuyu8BjNI4wZKea5y36jJYAuDL9wPOF64cx+PGZ7ruH24bOXhduI03cTzCZM3aBYucXxuI/e73utFebq0KsIX6+OwZkcAX24093H7Avh2JwMs8ZixIs7WKrjxtAJ0bBH+PFxkztt5V1yB3J/+FPkXXsiogfOXw0Vz/meAsFSpyeyv8fr7wEVX9wHD2al9WuPD4WMx69gB+Om4vsj9zcvYPfxq9OEf3XHP+Bp/fLMZLuhzCi4YOxyNP3kFu3p2RsaCkulgzkTctOEMPDgSZp83w285H4mv/xSzW4/FBW6N7dTd+OY3Y/FVb8+wGOPxzHv9c00+tKwgC88t3Me9GGDltYfnDU6HxwfzUHz47eYVuJ+zBAvPLxyHQRbuzyxJxTakeM/Pcw7PNaWObh4IFX0HNxfE5dfNT86Y8+DC8SKekZGJNWu/xTcmE1+ZGxt3HtyJeBDyXfN8cv7yyy/jP//5j43U8gLMpyKxmjff5c/pMpPFmySWFuCOzMRieDyoeVJlsSQGd6ZOnVqpeTeux7c1FKFxg3ibmjA1jPNNjd1uO24Aqaa7XnIhEuMK0aRRsvlbgvlb8O9sK5bTLk9BYYG9QHkTdzBmXD+YPdumtWvW2APeTdzJuG74ZII3u0xJyUnF3+cOGy1u69tuu822jXH11VfjmmuuKU5sJ4NVOH7yk5/guuuvs6/F62suFD/q0wc7d1XulYguv32b3G5+hu7nq1dnYMXKVfjfV4si3t688DJiyhtvJgaM/vWvf+H555/Hc889h2effRYTJ060QYx//vOfNrGbicP5d443adIk+11Og9tr9+49EV/UK3M+4NManpTYkCHnywjwZZdd5vwV9qbJbWDthRdesOOzn+NGzaxz77bw4nDuZ9wP+Xs4v/z8PHzxv/+hubmoMgDqBmF4oeeJdceOHchxLlzlYeaEy8z5uIm8/RzitsdSql0Wkw4b10kFZh+K1Jxf/QrrX30VQ1Lqo+WGbbbkClNuxxPx/w4V4NJefTAorTt+kV+EvPYnFP+95brvzHfqYfeCT+00Korr172ocF3y2M/JrYe9ceOQk9/GDnMT/1ZYZM43fCNRfFMUxkVW9D0c3sDxJpA3Q7zJcJeFiecYXvw4Di+c7jB+cj+o0L5mRHNc1I+rj1ua3oIlHZfgyWOetMN+0uQntv+V419BfKDk3Msb+V+Z7cDjnsvLYD33RV5DKrqsroUHF+KOrXegV0ovNEtohjf2vOH8JSjW875lyy24ecvNyCvyfy3luG3j8NNNP8UPBT9U6e8uT02ZNzNcsZh3Zc7ZZM4+Tld4vL86e+D5eGPWfDRo3NRc3xuYa0rlS6YRSz/y4QLXjR/Omw+4KmtwlwKM6LYRDc091YpNBeh9bA72HMzDIXOOzC8sMvc7PK+ZZDaDrfVVFMAPew7iw6834vUPVyEeebjmnBNxUrtgiZtoZGZmIS2tkz1f8VzPbc1rcjC4wSBDADtMBq338UnYnlMPO5NPxre7klHPKdGSksg3WMWhQ5tU7DmQjy0smhMBPkk/MbUQ81f+gIN5AWTt5MO3YEAj9DPYPkvJ55MfFeAnfQuK947hvQOYcXsA7YIvlYkaMyZDhw61mRU3wMFt7k0cxr9xHGZceB9ZEVzHrN5744034qcm88oi/aNGjbJBPv7NnT+vIW7iMG4PBvU4Lr/He0ved/KhSqS4bd37IOYHmAljNx/GVnWQxXt/7e3mMnnPL96/cX0w4MJSLMxLcT3w7xU9H1Hodxm8YEPX/P2cD7s536rEe2CeWyJJlSlZ2NDkp+6/KB+nty3C93sD+CgjDu8si8OKrQFbpehX5xfg1LYl6zvWKnf+H4hHJ13r6e6KBwc4jdW61XzadYAZGBzWdgCmD30CNzGes+hBDLDDTGL7LKXaWmmHm574HVbd6PzdpHvmmOnPLT3MbWw3lhhgibQkix8uF9cpjwHe31588cX2/pFBUm9iXo/7DQtXMP/pBib5XVYxOuwIZ9G8aIvn2YMk5EDxHjjs5o0tb7S3b9+BZSuWY4M9wSbjgLnxbt4kWDyvIrzzdk+YDHLwN/DpByNaPGnzZMYn+bGaNy/4DLbMfO89+0Se82K1pXS+89xgAIaBH65knrC4ISoz78b1E8zviEOjBgE0acgUDJSkhiQbgHGCKMHPODQw9ywJgQJzYmOQJRh8aWyG8zMlxXSbaZeHOxp3MG/iCXT5smWY9tZUm1auDEb/3Z2SOxmj1tzuBWxN3yTWVXe/7z3BR4rbm99b8s0SzHx3hk2bN222w0KTuwfyO4kJ0T8JCeXd11x2mIPd3v186bLlyMxaY5aFRZMPoU0rPtWMbHtzOjt2/GAvzkx8LRlLZd1zzz023Xvvvfjtb3+L++67z7ZzwsRuJg7n35leNRlwfjc4nT32Rr6wMHw9/VDRng+4Tzz44IO24bnJkyfbzANLFDG6zqpNLgZCzzrrLFsijPsIA0JTpkyx7bZw34lG6S3ij+uTmWw+0f5wzsdoZrYDb7S4rXhsuqVrGCjNWvMt2GhwJLifhd5IuPsEP73dbnss3uV1x2HitLicTNHc2Gw2NwctGtZD8527wVtRpkOd2uEXB3OR3r0X/p/ZDr+eOhUDOqRhDN9c0aFt8XjNd+5Cs6IAtnzxhemLDpeT24qJ69bt5jplOpQbj5zcRrabUX03AIuCTUhIOQ2HivojNy94PuBvjwbXD+fPCxpviHnTxvM8zznusvCT1wJeaNnNxHnxe5yftztakR4XJuuEtkltcWLiiWiZEHzy3Ciuke1nahAo/SSc17Bbb73VPvFjNUDeNPGJH5/yc1kr6sucL3FBgwuQ3jAd1zS+prgUjVcs5/2X1n9Bt6TSjQyeu+5c7CsMtvj/u1a/Q7/6JW0tVNXvjsTRNu9oz9nF7HnIfJh/PKZ4L8UU+jSbGaMFX69C05bHoFnL1kg2GWCevyqLASY+iGCghcckz8du4jWE5xH3usHSAZXBs2vrBjmY+OMiXNitAH1PKMD3uw9hw/b95jMXuw/kmWu2OVea8+V32/fh7XlZ+PCrdWjbPAlXm8xHl+NKGgyN1pIly3DyycG24dzzfDC4EUx0QtMidGy6H2u2F6CluW9btbMB/jInCet+YClmllKOt+nUbidgzuLv7HcicWG3IizbXh/3XJCHhd8l4Y8f1cPug8GASnD+wU8bZLElW+KwcluRffDQxVOIw4yGepW8peITYmZk+ICDxwGTN9DB/Y7XZu4TkbRrFy3u45wH93FvgIfJ3e9D9/1osdoMj2n3dzHwz+sO78NYEsHd3rHG44dBAz5AIi6He53jw1G3Og+XheMxs0gsPc6HYsTjkZlHJi5vRXEfZ7CMD7G8uG5jcd6IBLcpzx2RJI5bGaxCdFO/fDx+WR5+cU4+fnZGAf4vPR8PXZyPzi2rLsjiivj87/f65YGPYr07jN1utR4GYLp2MMPdqkPBNNW2fmuUqgbkVAHyTp/dnu/ZRnFDhhXPtwZh/oUBXvcelaVcGEhhgJDHFq/bPJ74oJh//9nPfmb3IX6H+7f7AKXUUc6TAFNF8HAJPWi8/bxp4MHMi+bxbY7HBeefj/2HDqKJWajjKtAInJd33jyoeVFmvSxGzPnJp/m8yeaJI1bzZubwpptuwj7zm5iJYEaST6ZY5MxdFn5y5XNcZnIrM+8m9XjxMxe35ABSkuOQZC5yifGFSPBJbIQpMaEISSbFB0yGpKgQKfXZdkuc/a438cLKaZensMBkTJhR8SSuazvc7IRMbMDVDa54E2+Q3HFYAsD9PgMQ0XJvTL43J223BJF7kYhGryieSnh59zVXuP2cr228OH0I8goL0Kpps6j3NV70eKPBRNzHzj77HEyb9i5mzpyFDz74GHPmfIq5c+fZxG4O4984Dsd1iw9yGnxiu2ULL3allz+caM8H3Dbjx4+3QR0GUDhP95PBn1BjxoyxGWKeiLjO+LSHGfHf/e53UWUyItmLeEOTkJCIDZu3oId9hWF3Ow+eGzhfPqViwJQ3f1u2bsbZ5mY+Eu7NSyjvPsHu4mSWo1S/k7geuA54Q7N27bfm5jLy+tDD3ngDe1odi886tkOhOa/s7tQBvzt4CKd17Y47J092qtTF4Z5p09C5XQc8kpuH3R3bo7BhQ3zW/kRsDMTjsilTnKlFhuuOib+fn24gg4m/xQ2quEEXd1igcB0SElvhQH4nHMRQ+12eF9xpRcKed8y4buLFjNPn/s1zccn5KK94+ux25+MO806DKVLRHBe3NLsFA+v71zw+PuF4/OWYvzh9Jbiv3nDDDfYGnXXjeXzwGJozZ479nRVxSaNLMH3fdFzz3TV4MfvFsCVNYjXvBnENzLWndCmHKxpfAZN1sd31A/WRECidiamK3x2po2Xe0Z6zvXgeijcZzM07d+O6G3+Gf058Fv+YMBGTXnwJQ4aUbiy8vjl3NGnaAvXqm+0cX/kMEzN3PH7dItzMXLMUMs+JzIjz5tX9G292WaWB66eigvcu+WjREPjFuUXmvilYHYcpN68A+w7m4+vM7Xh11nIsy9qM/l2bYsTZbdEu2gZJQmzc+J35Xa3tjTi3e05+HN5cVg8bdicEq5WaxHXJEjVPzC3Eph/ysHFXIbbuKcTqrUX4+cuFmJvBUi3BxHZivt26D9n7glXPytP7+CKc3aEQH61vgjPS6uP2c+PNfFLw7PwEFBY5QRazLoLttgT7H3wnF7eeU7ntGw4bVOZDDha55293Ay7s5vWCGTBWU6sKzAjx94UL8jAx4FIZbkCDDZayhDWrTvMhLK8//N1ViQ8ZWI3EvWcm91rHdete8zge7zU5Hu/f+buJ+6jb9l9F22ch/l7mi1gtyVttnvda7ryIJf+rCu+D+WKISJJ7z1xZTeoBJ7UpwhntCnFs4yIbnKxqlTn/h5pzj6e0CUuplLwyqE5gEIXXIJ4T3AAszw08ZzDY/9Of/tQmXrv5yWG8XjPx+HaDtaxmeFgOmwcmI5wRC7nAhl5w2c8Dmje62dm77UWzWfNm+PLrr1E/KdE2WFdhPvO6/vrr7Q0LD2yWLuHTImZeLrzwIjs8VvNuYk5ObAWbFwFe+LkyWcqFWLyIG4RtZASfzhTZ+oqVmXejlHjkubUJzHnzUF4hdu07dFjKZtp/CLvN5x7zyacyiDMnM7uuDj/SOU1OuzwsBZHHDIsnMcOSlx/MwDAxQxUaZGFieyPuOHxFMr977nnnxbQRzmht3BC+/rkvn33NK3Q/53HUvFlzfPHVl2hUPyXq7c2Dmw0Nbtiwyab9+4NP6tPSOqN9+7YmtUO7dvw0N3/tTrQp2B38G7s7dUqz3+F33emwPzm57PZ4vKI5H/DE5L6O829/+5udF5/OsspeaB1I4o01i/Py+GSQ8qmnnrKlD5jJYP3tSLGaDUuU8Xjk97i8TG43hy9bsRIrM7Nw/oAB9kLKmwouJ28s3EbZ+NSF7foMdo7jSOSbYyAi3F9M8u413GeYuJ54UmbAgDc82bt3mfXQyBmrfA3btMEV06cjY/d+zOlwIl44eBDHdOmGu954wwZYXOz+3dtvo16HTnjZ/Pb/9e6JjD0H7Hc5jUhx3fklrkM3YGLPDeZ3cR3zwsPuooIfUD9xI/YebIP9RVcXf887zUj4fY/HCzFDxnm5wRR7zjHd7nhcNve7Xu7fIxXpcXFO/XPQNfnwNiWoabzJvDUe4fSVxv2CjVnzde68xjBgyWsnS01yf40WgzoL2y/EXc3vwlc5X2H0ltHOXw4X63m7/l+z/4eUuLKfFlbVvCNxtMw76ns4R1zAZN5T6mNffjz+/e5n+Od/ZuKpl6bij/94GYOHDC0urUt8nTPf2BZvbiS57JXBp4G8IfWWWmDJTz7x5yePaWb2vG0zMMPGah3lvRkpHB7pBQVsb4RVYwI20JKUEGdfv525cTtmzFuJ+IKDuOGC9rj8zLY4tllsMi/ffLMUp59+WnHmfvHmZGzYFYcpi5PwwMwkPP3VcZiy+QzcNiUR9ROSsXV3AMu+K8D8zDys21GAU9vF4ZKT45GSxBItLNkShwGntMMn30SeaT+5TT5G9s5FckIAHUy+9+9XAz8y0/3pvwN4b4WnRItJb3xVgNNOLEDLysWXwuI8WAWcbUrwvO2es9nNKjesqsNxqoKbabK/NyTI4w5nf2Xw2OV0eG13uaWaee9Rlfg7OC/eg7nYzcAKk1vahb+Rxx/vPbwlrrl8zDMx8f6sovj7mfl312s4lV3XkeLv5L2eN3HY0aKi5/9QAx/1lDYpq6Fav5IxRwHmE9xjxN1vvcesez/JxPMVE+93+aCZn7zvJB5zpfZ698CKNS4QZ8qnjY3NgbzGbLiG9eqZzODhma/KYvSNT1/4xIM3AAxwMAjCE90ZZ54Zs3mz+CyfPrGOJXHnZjSUGGDhiYs3BjxxcUN07Ny5UvNuncrGXouwPyffBk8O5gfs05CwqSAOBwvi7XgHcwtx4FCBSea7Icmc++y0y8Nonrc0CxODKLwouvLz8g8LsjB5S7TYDJD57kazLqKpwhIrbv1aHgyVvUEM5d3P69Wvh6z169CkQcMKbW++Heq88wbg4osvsomBGu5zAweea24ym5nU3H42b960VPL+jePyO/yuOx1Okxe8SER7PmBgg9uYxx9LiXDb84Tzy1/+0hnjcFdeeaW9keb32Gg0o8P8Dl+vHCl+19sAMBNf88nXAPI8wLaUzurfD8OGphe3kcNt5e6TPImuWr0an82bh0vNMR0NBnm4jlasWGEzDEzMLDHgxCpbfFLLkzX3tNAgi4v7C5fnk08/CWY4OkdfTNoNtqxs2gAtzz4HvwoJsrg47LfTpqHFWedgxQ97og6yEJc9NHEdcr9yE38Hb5yCTwKSTcbgByTFb8SenDTkFJ1uxim5yfVOMxLecd1585PrkN3ujSODV0zuDZ6bvN93+Q0LJ5rj4uEdD+O/e//r9JW2NnctrvruKqfPH5/48kZn4MCB9ukobwhZbcJ78xyJjXkbbUa6b72+uLfFvVicU/Ka+HBiNW8Xf29BUWTn/FjPOxq1ed6VuYfjuSHZHK9Nm7fCce06on2XHujYtReObdsJk9//DBemX4JbbrnF3Oecgj0HcpFgjq2A2acqg9cJ3qC691Gh+HvClVjl/RWLcEdzrShmzhV8Y5wtyWJSXl4BlmRuxjtzl6JNkzj8ZkQvXHz6CUhlowsxwgcefH3zrFkf4M03p+GNN6Zi+5KpaLb3f9i3+wd8vycPG3YFsHlPArZkFyIe+TizQwF+2F9oS7ikJueid4PFmPDW53jmzc/x9ze+wN/e+Bz/W74B36yJrmpHakohTj8xz2y/YP+5acBrPwtg254C/Pj5PKzeVoRD5t7xnx8fxM8q/ybjMrG0BO/LeO3ktZ+JjcW6DbNWFV4vyM0sufcD7HZVNvPPgCCnx1JqxOmzqgGxrZKqxrwPq+y4v4kPsXhfxuPKe07hk3vmYbyBFgZHuA2YGJg5WvCc6q2WyMRhR4PKnP/lcMxHuMcPGx7mg2D28yEI8Rzinkc4jMcQjxs+dOaxzlJrjAuUeusQMYoTTdEpW7TOzMi9UXVvVkP7+VQze/ce5BYUoWVqE5xwQuWLZ9WkefP95N75MlGs5p13cDd2//A9Agd3IjF3V8xSQ+zGiU0K0ZCt4pahqznZfvXlV9hqdiTudEyn/KiPfep09jnnoF///mhuLirMNLrVBdwqA5u+24StZodjCZaDOQdRL6WePbH17NULJzvBqXD4lh7ecHqddPJJdtopZjq8kB1//HH2AAj17dpv7YWFdmVn4xhz0eFFnBeOvqf2RcdOnYqfhJcnmn1tV/Zu7M/Nx/EmUx+LfY1YKoPzYOkQ3nww88pgjDcDycRhSUnMYAYzmzzgGfxh8c3yhLZgTtGcD3ij5GYOmFngCYntyXjbZgnFZWY7Sm+99Za9qWFgguuQpV34WyuK02UG27t93OTiDT4vTNt27MTu3bsw6PzIS7K42Ogw1xeDTGzMl0/mmPg7mNg4FoO9vJHhMnH+7qe7LPz+vPnz0K5tOzteRSWZddb3muvRc+glpX5nKP6t+9ChOPmmm+x3KsL9DeT+Fg5z13sw8UkxbIpPaIK4xLbms5HdL5lKxgsGZvjdSLjz83a786fDlyN4nHi73X7vZziVOS7++cM/beOzp9Y71RlS4rv87/DHHX/E2OZjnSH+WCqSxxTXEUs68LeymHU0jbz9e/e/ce/392JF7gqM3zneNtDbO6Xscy9VdN73brsXC3IWYEv+FvRI6YHGcY3RPrM9bm9+O1ICKXh0x6OYs3+ODQB1SOpQ3H6NVyx+d0XVlnlHs2+W99YhzoeN2iaa6wffItSgUWOTmqB+g4bmGEnE4hUZaNmqNb5Y8S2S6jdBwyapZtzgGxnKEu6tQwyy8LrKkixcfibenLqZW1br/PDDD+01nKWG3cwe7zF43ub4vH7zXoBViJlxjfT8uS8n3wYnjm+dinlL1mNxxgac1qkZbhjcBR2ObWx+b9m/qSJ4Xe7btw/YEG5aWkf72aVLGk7p0hoDuyYivUcRBnQqwqU9C/HjU4swdXk+Tm4Tj8+/BVISzLXm2gJceEpz9ElrhVM6tbCpd4cWONl8nn3ScUhKjOwBSjismt7nxIANuvztowI88WE+fnU+0KnitUYixoAZ38DF/YHbl9uTjc9WJd6juA85eC/A/ci9f+W+xWF8CFTqTS1R4j7LeyIep/zkQxju+3zgwwxYecdORfE3MZDCIBbv/3g+YdCFxxLbjeRycRhL/vOhI//GZeJ1kA31st/9jBZLiHCeLKnMjGesEqfJ/aOywTeeMxhQ4m93E88dFW1s+UiK5vzPY6oy+/LRyu+tQ17uscASlHxwyDwnH56ym8cLj2Hmh5lv4XWaw/kd5n+Y16RAdnZ28ZXXrdvFi1ik+CSXN6peoScPHvS5efnYtXcfunRsj9bOU+XKqkvz5oHEJ+Ru4CAWuLw8wfBpQiQBh3nz5uH+395nn8zzJrDv6aehXnKKrQ7E0ilsr4VvJ+Lv9mJjtevMQU4/ZO9Cy+Yt7Anz0mGX4fZf/MIOL8u706dj/rz5Th/w4+t+4nSV7aMPPrQ3c7TWzP9k8zv5m7d9vw1D0tNtfdlIRbO9d+7eg27mRioW+xoPYF7weVPAt1nxiSJvOiPB4p58C9F5551nS3pxnZeVoWSwgHWJeeGlaM8HvEFhY1A8IfGpzfnnn2+rBkWCN1l8cxK/y/386aefrtQFlb/Tfb26K3R7sdrPnn0H0LhBfZx8csXa7OH2YbUll3cebjdvapiZ4DK5659/4/7CjAWfdrG+Mk/QtRF/hxt8dbtd7rnAXRf8ZHLXhbs+KorT9yZ3WDju/L2pPJU5Li7ecDGW5izFbc1uQ1pSmm2nhG8A+nD/h1iSswQz9s1AdtfIimXzSdWsWbMwYMCA4tKT0fg+/3tsyNuAExJPQOuE6G6go5335vySqgx8hXNSIMkOOybhGJitjq35W2H2GPv3ZvHNbPAlnMr+7sqo6fOOZt+ctCrpsIBHeXgsFRTk48C+fdi7excO5Ry01YYapza1gRi2e1UeBnhu7Fq6rRne9PN+gvcRXszs8XpFPC/yJpgZIQZdWAeeeH3g9diL51GW3mSDwpHYsfsgnnjjGzRvnIzzTjkOvTvF5r4wliYvLsR7y+KxYgvw+PAinB3+ecVRgfvso48+as/JfEBT1RlfHjN8KMJ9PPSa4CbeG1c2uMp7dlaD4ifvwXgvxuOZ3VWF12AeO8xws5sBW95PMTPI44mYeeQ6ZuDHmwHnvSaXkecf9/rMwIRbGrg8vO+KJg8ZDQaOmJmVoGjO/wxas0CAlMa2W5lXiQaDKLx2uccw82gMBIY7Rg4LtDByyAOsQq3Wy1GPmWliBpYn6EiKP/JC5kZcmQHnDRHxyVWkGa3FXy+29V05Le7gvAiWhzs+b8B4ofngww8w5KIhtpE3ZuaZ+Y1kGkcal58HMRPXHUuo8ODmbwvN2HJd8jfxk9uH3+GFluub32EKvbH18jtpR3s+4PIyyu59AhkpFmnlUxDeEERa0qg24L7vbqNQ3E6VLZ5cU3Hf9KrO4y2W867McfGPXf/Alwe/RJL5d3LKybZx3I/2f4Qpu6egMFBoh//t2L85Y5ePN1DuzVR107yrX3nzjmbfrEighYLXmALkmUwarzs8Z7HaUKSN4PoFWiLBew0G4FnKgKUbvQ1pxsKWH/bj2Gal3/pV0/x7YQAsXHNN3/DB46OJW02MJVqPNrwHqOyDhdqA5wveB1aFqgxO1UbRnP8VaPFXkUAL8SG+e1/Pa6Kbr/VTKtBCbiM6CrSI1C2hJ23S+UDqOh0XUlNFs29WNNDi8gYvowlcVjTQIiIi4UVz/legxV9FAy3ROCzQIiJ1k99JW6Su03EhNVU0+yYDLUeKAi0iIrEVzflfgRZ/CrSISLVRhlLkcDoupKbSvikiUjdFG2gRfwq0iEi10E27yOF0XEhNpX1TRKRu0vm/dgi8//77CrSIiIiIiIiIiMSASrSISK3GV61JzdG6dXSvDhYREREROdqoRIuI1Cqnn3660xXEQEvnzp2dPjmS+Mo7BVpEREREpK6zgZb27ds7vSIiNde3336rQEsNpkCLiIiIiAgQ53yKiIiIiIiIiEglKdAiInXObbfeilE/vxmf/W8x1m/agXUmrd+8Axs278TGrTuxadsP2Lr9B3y/YxcWfv2NHffecfc43xYREREREQlPgRYRqXMK8gsQCATQNDUVcUnJiDcpLpEpCYGEZATik1BoUlF8Iho3amzH3bt3r/Pt2mXHc3/H6nNOxqozukaUOC6/IyIiIiIiFaM2WkSkXD/+yXVOV2mv/Ptlp6t6xKqNlpt++jP7efdvf4cuHdvZbitg/0NhYREKi4pQYD4zstZi/J8eRVJSEv4x4Z/B8WoRBk5a/fgnCCQmOEPKVpSfh+///Qq6fPKNMyRyaqNFRERERKS2l2hZPwkjR07CeqdXRGq+uZ98gscf/zPy8vKdITDdeXj8z3/BV1995QypWgUFBTbl5Rfgu+27i9PGbbuxwaSN3wfTph27kZsXHJepNirKPWSDLHl7lkSUAgmJ9jsiIiIiIlIxhwdaGLzo3Bmd75/rDAiae78ZVlZQI5qghzsPTwqZnYjUMCy94k0VtXLFSiz+5hs8Mf4JG2xhkOUvf/krFi9ejEVff+2MVbXy8/NtOpSbj8TE+GBKiEeS85lgkv2Mj7eBFjt+QUlgqMpljUf//uOR5fSWK4rx4xu3cLpK+A0TEREREZGK8S/R0vsqXLX6aUxyoybrJ+Hp1b3R2+n11fZGTJ58I9o6veXqfS9mZ2TYouYZs+/F6psVbBGpaVhlyK025HaHq0YUqVGjbsaZZ/bHN98swV+f+Csef/wvWLpsGc4++2zc9LNglZ6q5pZQycnLx5Yf9gXTrmDaumsvtpnPbbv24/vs/cjJz7PjFhYUOt+uJG9QJFx3FYlv3BJNf/wgGg64xhkC281h/JuIiIiIiFRemKpDHXFBOjBjTjDSMve5R9Al3QxwrJ800lMaZWQwIOOWaHE+J7EETKSlVRikYbDlaadETKkSL/ej5OtzcX/xcDPd/zmDae79ZpizLCJSY8XFxeGW0aPRr98ZWLJkKZavWI4zzzwLo27+uf1bdSjIz7dp44YNWJ+VYdO6TCdlZWLdGiZ2Z2DD+g3F48dcpzGYP38MOjm9Va1gz3YcXPIR6p0y2AZYGpw1wnbnrPjU/k1ERERERCovbK6m3Y23o8sjz2GuLc1yL34+0PmD0fbGycGSKEzPdsEjz4VEUhY/gjUXuH+/Cq+7AZSytG2PLovXYB2DKYMeQZdng9+ffe9q3GwjNesxaeTNgDOc6aHTgl+1gRn7p8m4MeIiNSISCb8qQ5Ut1cISIvv27nP6gL17d5thMSoxEoF8M3+mKS9OxEv/eMKml/9Zkv5t0isTxuPViU/iv6/+q3j8w4SWQnH7nc/xowP2jUVMo2faETD++rFYsGAs0syw/vf91vl+yPBJnqAHp+VMIxDoj/HuzLzD08x3ncHl2T/vDRxY+K4NsNTvm46DX8/CvrmvOX8VEREREZHKKuPx8QBccNXruJlBj9tDqgR5S5zc/Dqw+tvSgZTe9+LnA5zudh3LrnIUav23WO35ftuB6ej9+geYu34OZsAzXdfiRzBo0BrcnvGQWWIRqQ7eoEu03DZZ3OpC/fv3syVb3DZbqoNbQiXaFJUFY7FyWBGKikyaMQoTH2JApRPGvPQE+vV7Aplm+Pwb3eo64YbPxOi0lbif02DKHInJ13M6HD4WvWa4w813nW9EJMB3K3mF9ouIiIiISEWVWU5/wM/vRW9chQu8EQwGWQbNQPpsp2TJbI4TAzbA0hGeF61Gpve9eLa41IuI1GSFhYX4y1+fKA6ysLrQrbfcUtxmy/gnn3TGrFr5eXnF6a5f3437H/j9Yek3996Drdu2Yv369di7Z48dNyr9nsDdQ5zutG7RBUJcWauxFBOR7i25smAlMjncO/0osLqQW5LFLdnScMDV5i8KtoiIiIiIxELZDSKw7RS/kiK90zHQKeKyfs4MLA52VoJTXYglZ2wVokfg1kay07/qAgxoOxDpKBnu1e7GyXgWN2OkGmgRiTlvI7iVrTLENlj69DmlOMjCfrfNlrPOOgtn9q9QOCJqh3JzixODP7/51d02sbQN0/79+21KTEhEUnIyDplhHPeIcEq52JIrNk1ABeIrFhu8rddrYHF1IVYjYndK97P15iERERERkRiJvuXJtjfi9i6PYJBTdejuNV0qVqKFVX7c6kedn0bH2Rl4yEZ0BuAh5y1E/NugR7rgWfuHtrjx8ZLhTN7GcAc89Cy6PDJIwRaRGPK2zeJNlTF40CDcMnpUqYZv2X3rLaPRv39/Z0jVyj10qDgxeLF3716b9u3bhx9++KE45ebmIs+mQ/bTF0uYOJ1Z0ydH1laK5zulhA7v1AW9FozF47Z9Fw87fDKmO+21RDpfNni765XflWqThd0cpsZwRURERERiI/D+++8XtW/f3ukVEam5vv32W5x++ulOX9C2bdts4DUaZ53Rz5Zcofse+D1+f9/9tt2S39wzzgZX3DThmX/YKkMJiQlo0rgJ5s77zH7HK2t8f6SNDYY5+o0aBSzthpdeAq6/HnjJfaMQG6719M8cHUD6RDP+b+8FPmpZ9nB+19vYLUu4cPjM0QhwZA5y5+vOz2PVGV1xzKjRyNuzxBlStsTGJ2HrxAno+vkqZ0jkWJ20devWTp+IiIiISN2kQIuI1BqxCrTMnfMxfjlmjK02NPbuXyExMdEGVg4cOFAcZKFJz7+A/Px8JMTHIzU11QZaEhIS7N9qi9XnnIxWP/kxAgmJzpCyFeXn4ft/v4Iun3zjDImcAi0iIiIiIgq0iEgtEqtAC839+GPExccjJSUFDRo0sFWIyP2kHTt2YPfu3bYhWgZa2LYMu2uTHc8/jZ0vTkRR7iFnSNkCSclofuNotPjZbc6QyCnQIiIiIiLiBFqcbhGRGi9WgRaJPQVaRERERESAQHZ2tgItIlJrKdBScyjQIiIiIiJSkbcOiYiIiIiIiIiIr5iXaOHTZRGRWAtXUkIlWmoOlWgREREREamiQIsyPSISS2Vl4HXOqTm4nURERERE6rriQEssS6Io0yMisaRAi4iIiIiI1BalAi2xKPKtTI+IxFokgZaHHnvSGSIiIiIiInLkKNAiIjVepIGWfzz1R2xe/7nzl/DatD1D4/nQeP40nj+N50/j+dN4/jSeP43nT+P503j+NJ6/6hpPgRYRqfEiDbTcf9dwZ6iIiIiIiMiRodc7i4iIiIiIiIjEiAItIiIiIiIiIiIxokCLiIiIiIiIiEiMKNAiIiIiIiIiIhIjCrSIiIiIiIiIiMSIAi0iIiIiIiIiIjFyRF/v/NVXXzldIrXTj370I6ertI8//tjpknDOPfdcp6t8er2ziIiIiIjUFhEGWtbimUF9kPHrbIwfFOy+dyFw6iOLMPu2Ds44QdEGWsJlVEVqurL2XwZaGjVq5PRJqL179yrQIiIiIiIiR6UIqw6tQcbCG3HxINM5+ync22MKsrOnoMe9T2F2cIRK2b17t5JSrUpSM7Vpe4bTVTaN50/j+dN4/jSeP43nT+P503j+NJ4/jedP4/nTeP6qa7wIS7TMxpjUd3Fx9niYDvypM0uyAM8MGg1MmA1voZaKlGhRxlVqmyZNmqhESyWoRIuIiIiIiBytIizRMgjjpwAjUlMxYtKN+DUjKyzZguG4qHTNIRERERERERGROivytw4NGo/s7GyTxoM1iGz/7NugOIuIiIiIiIiISFCEgRZWHRoT0h4LG8UNHVYL7JyP55+fj51Or8hRZc9KzJq1EnucXhEREREREalekZdo8bUcmWudzspiAOSxx/CYk56fXwNCIRlvFy+PTW9nOH+oZRRcOjpt+gJvvPFGSfpik/MHEREREREROVLKCbSw1EoqUlNHYJL5xzZaUotTH9zb49elGsKtuAy8/exKdLt5HMaNY7ocLXcc2bDAzvnP47G3gMvt8gTT5VhlllTkyNuzchbeWAD0u/JKXOmkfvgOCrWIiIiIiIgcWRG+dShyFXvr0EK8/dgqdB13KQ77JktjPPsJttueljjn5pvQv3kwEPLsJ8GhxcNhxp0GdGv5CT5Z0R2X2+llmGm/hRXOmN3POwfbl7rjOMMuH4dLS814J+ZzQsOC8zpMqWVy5sNh03aYJVmBFeYP3S+/GS0+fRZcRDv95qX/br/pzjfs9MIsp986KfXb7R+c8flbgstBLc+5GcMwrWTdtTwHN9/UH34/U8I7sm8d2oOVsz4HzhiMbo2dQS5WHbJ/6obGthrRcqcaUWP0GBwcn0GaWcvdykXOcAS/d0KT5Vi+8QT0u/J0HOeMURX01iERERERETlaxY8bN+4Bduzfvx8NGza0Aw/Hki3t8cqx43BRR2fQ7DFIvWUtRl5/Kpo6g4jTad48smz7li1b0KZNGxw61BCBH6biramf4bMfWuGsLu73M/D2Uxvwo3E34bKzzsJZ3XIwa9pGtO1zApqf0AdncRhTq+/wytcBnHXiAXz96ScInD0ON13WBc1twOQVHLiI/cFxu6Rs9IzD7/6AqZ/uRDczzfrOXLFzMWZ9GkC3wZxGKC7Te2hwefD73eI+M/Nu6Mx7Pdr++A5c085M861FJd2cfldglfv3wc5831qNVmcFMC/s9PyW8yA+8Fsndvp+43dBl7ZxWL2xLX58xzU4s/5ivDY1gIuc77f67msc7OL3O6UsKSkpxfuvn3Xr1iE5Odnpi7E9a/H1igBOOOV4hMZZcGgH1nwHHN8xF4vf2Y5OVw7GGd27o/vxufj68x1o2bElGrfsiO4cxtRkB+auDaB7y0NYs2I5Aj2uxOAzfKYbY7m5uWjXrp3TV76dO3eGPT+555xPPvsCA/p3c4aKiIiIiIgcGRG20bIGGQtvxMX2dUOOQXfgEUzFezFqo6XzpU4Vna6rStpD2bkD27ECb7ltpLAUx/YdwbZGWKrDHf7WCsAd3vIcnOmWTtm5Givh6Xd5x2neAi2dzlJatvAPPnCZPN9v3qUbWq5wqhS17AYbI+I0vd38G7nDqHNXdDe/bkdmWdPzWc6y1kkkv8sO5/fftvPofKlPKSKp+Ro3RpnlZfbswW5sxAK3/RaWbDHD9tq/rcQsd/iCjcDuPcFSL417oFtVFmMRERERERGpAyIMtHRE51Mn4V3vK4bWvoepC3sgLdbvd+58qW2jpbsn2HCzp52UcW61Gm+bLjef4x9UqCgGI7avxOqa2nqs3zpx/lS+zrjUfqcrVtlgTTDgIrVI48ZosmcjNpX3aqHGPTDY04bLlawOZKsTbcQJg51hg3tUeemV6tSm7RlOV9k0nj+N50/j+dN4/jSeP43nT+P503j+NJ4/jedP4/mrrvEiDLR0wG2zpwAjPI3h9pmK4YvGw1vIpcIYOPG+0ceWGmmB5jbg8Qnm+UUCPKVDdq5e6bRXEqJ5F3RDmO+XqTPOPAf45NnSQYiMt01/yDLZeXfvGn2pkIxVWMHfkBbl9MpaJ2XxlAR6277RiQGXm3FOy+04wu0OS9SOQ7cewPJZX5Rq/HbTF55+G4xZjpV+reM2PgHHOdGVPZs2HlWvgt68/nOnq2waz5/G86fx/Gk8fxrPn8bzp/H8aTx/Gs+fxvOn8fxV13g1pDHctaUabAVKGr0t3fCrwdIcN/XHzrcfA2sM2UHduwPbW2DYMGCabcPW07hryPfdxnCLx+HfQ7/jKN3grtH9coxja7Slplm68Vo7Hb9uLpv3d7jfY2d503PH8U4zdJ2E/vaQ72c466vlOeeh5ScfwVl1pv9m3OTb4q+U5cg2hhtUulFb44R+uLLbnjCN4Ros4WKG7/3iDbDGkB10wgnA7sY44wzgc/d7wT9VKTWGKyIiIiIiR6vIAy1rn8GgPvdiIU7FI4tm47Y1Y5D6p85YNPs2eGsPVSzQstsZchQLDZxIrVYTAi21mQItIiIiIiJytIqw6tBaPDOaVYWyMeVGZ1CMG8MVEREREREREantonjrUBU0fFuXNO+Pm1SaRUREREREROSoFnHVodljUvHuxdm4+N1ByLwjtlWHRGojVR2qOFUdEhERERGRo1UUjeGuxTOD+uDehU4vbsSU7MPfOhRtoEWkNlOgpWIUaBERERERkaPVEX3rkMjRioEWKZsCLSIiIiIicjQqJ9AyG2NS38XF2Rfj3dQRmOQMPcyNU5A9Pli2RYEWEYk1BVpERERERKS2KKcx3EEYX1w9iFWFspF9WJqCGye9i9l2HBGRI6dN2zOcrrJpPH8az5/G86fx/Gk8fxrPn8bzp/H8aTx/Gs+fxvNXXeOp6pCI1Hgq0SIiIiIiIrVFhK93JlYjSkVqcRqEZ9Y6fxIRERERERERkUgDLXzj0AhgiqfK0KLhmNpnjKoMiYiIiIiIiIg4Igy0rEHGwhtxsfddzh0uwvBTlyNTpVpERERERERERKwI22hhiZY+yPh1NpyXC5lBz2BQnwz8urix3KBo2mh56623nC4RqYsuv/xyp6tsaqNFRERERERqiygaw2UbLd5XPPMtRKWDLBRtoKVv375On4jUJV9++aUCLSIiIiIictSJojFcvurZ00aLT5BFRERERERERKQuizDQwtIsavhWRERERERERKQsEQZaBuGOR5bjXUVaRERERERERETCirhEy1P3LsSkEalITfUmlXIRkZqjTdsznK6yaTx/Gs+fxvOn8fxpPH8az5/G86fx/Gk8fxrPn8bzV13jRdEYbmTUGK6IREKN4YqIiIiIyNGo/BItfI1zTS3Bsu55DB/+PNY5vb6840QyvoiIiIiIiIhIBZUTaFmLZ0bfix5TnDcNTQFGjKlBoZZ2N2Hq1JvQzuktV7Tji0jElixZ4nQdrqy/iYiIiIiIHE3KCbSsQcbCG3Gx+x7nQRfjxknvVl2pFlvi5B7cM7wt2rYNpnvmuH8aXjysbdvheJ7FUtwSKs7n8/eEfm8dnh/7IBYtehADzLDhjz9ezvj8ivmbM8wmpwRMqfk7w0QkaN++fXj55Zcxa9YsZ0gJDuPfOI6IiIiIiMjRLsLGcKvRolXo9MR6rF9v0qRr8eqN94AxkHY3TQ0Os8O74sEJbmTEsehBZA32fO8pBkPa4aYnfoc+fX6HuWb41BHNnJEN3/Hn4J4BD6LrJGf4XPNdjrvueYx9sCsmcZhJk7pm4Vs7ERGhhg0b4ve//z1mz55dKtjCbg7j3ziOiIiIiIjI0S6CQMskjChuo2WE6fP2V0GbLX2G4ny3bs/AwbgWq7DWLb3ilii58VVg1drSpUr6/A6jBzrd7TsFAyRl8Rt/3Vqs8g53teuArngVN7YNBn0GPvooQkcRqetCgy0KsoiIiIiISF1UTqBlEMazbZawabwZoxp89zyGD5iOoXNDSprE2rdZWOR0ljYQj9rSLIMxywZ7ggEXESnNG2xRkEVEREREROqimld1yGvOLLzKEi7Hm25PSZd1H04PExAJY1GEVX1YgmbRdHwY2gDLuudxj20UhgGXufhdH6eUjYgcxg22KMgiIiIiIiJ1UQ1soyXYcG2wihAwiW8JancT7uhaMnxsVtfIS7Twu9ey2k9bDJ/ygzMwnIF4lO2/DHDmP+DBYECnXQeYgcFhbQdg+tAncJNeXSQSFgMsCrKIiIiIiEhdVPMCLU7DtbaK0PqStlAGPuoOW4+pjz4afE2z+7rm0Nc2h/S73516993ljz/w0eL5sJFcdO1ghrtVh5zpKMoiUiO1aXuG01U2jedP4/nTeP40nj+N50/j+dN4/jSeP43nT+P503j+qmu8QHZ2dhE7tm3bhtatW9uBlcHpdO7c2ekr21tvvYW+ffs6fQYbvB0LPOENglSzOfe0BdvaDboWkzzBHhGJnS+//BKXX36501e2jIyMsOcn95zz0GNP4v67hjtDRUREREREjoyaVaIltKTJEeAtOeMtUSMiIiIiIiIiUp6a3RiuiIiIiIiIiEgtcsSrDolI3aWqQyIiIiIicrQ5ooEWEZFIKNAiIiIiIiK1haoOiYiIiIiIiIjEiAItIiIiIiIiIiIxUirQwiL4lU0iIiIiIiIiInVVqUAL20CobBIRERERERERqauOaGO4bLxSROqu+8fd6XSVLdLGcP/x1B+xef3nzl/Ca9P2DI3nQ+P503j+NJ4/jedP4/nTeP40nj+N50/j+dN4/qprvCMeaIk0oyUiR5dojn+9dUhERERERGoLNYYrIiIiIiIiIhIjCrSIiIiIiIiIiMSIAi0iNcTWrVttEhERERERkdpLgZajRFGRbWpHapktW7bgmWeewcCBA3HiiSc6Q0VERERERKS2UqDlKFBQUIAbbrgB9913nzNEajKWWnGDK23atMHtt9+Ojz/+GGeeeSaOOeYYZywRERERERGpjRRoqeXy8vJw9dVX4+WXX8Yf/vAHPProo85fpCbxBleOP/744uCK14gRI5wuERERERERqa0UaKnFcnJyMHz4cLzxxhvOEGDTpk1Olxxp4YIrLIEUKi4uDpdffrnTJyIiIiIiIrWVAi211P79+3HxxRfj3XffdYYAv/71r/H3v//d6ZMjIZrgiteAAQNUbUhEREREROQooEBLLbR7925ceOGF+Oijj2x/IBDAAw88gD/+8Y+2X6pXJMGV+Ph4nHLKKXZb+bnyyiudLqmMNm3PcLrKpvH8aTx/Gs+fxvOn8fxpPH8az5/G86fx/Gk8fxrPX3WNF8jOzravq9m2bRtat25tB1YGp9O5c2enr2wPPfYk7h93p9Mnkdi5c6cNsnz11Ve2nxn3xx9/HHfddZftl+rB4Mpbb72FKVOm4NNPP/UtscLgyjnnnGODKCyxcv3112PRokXOX0twPFb5isXxV5tEc/xnZGSEXT/uOcdO767hzlAREREREZEjI8ISLbMxJnWM+b/XWjwzKHSYVCVm7s8999ziIAvb9Xj66acVZKkmkZZc4d+5XRg8Yakjtr1y1VVXFQdZGBzr3r277SYGY+pakEVERERERORoVcmqQ8uRudbplCq1ceNGWypi2bJltj8hIQEvvPACbr31VtsvVW/QoEERB1duu+02GzzZsGGDDaQsX768eNxnn30WrVq1sv2kakMiIiIiIiJHj3ICLSy1korU1BGYZP6NSGW3m/rg3h6/xm0dnFGlyqxZs8Zm1ll9gpKSkvDqq6/ihhtusP1SPa644gqnq+zgiisrK8tut8zMTNvP4Bhfw81GjFndiDgd73RFRERERESkdisn0NIBt83ORnZ2mDR+kDOeVJWVK1fakizr1q2z/SkpKXjzzTcxYsQI2y/VZ+TIkeUGV1wrVqyw2239+vW2Pzk52bbncs0119i2XdwSMao2JCIiIiIicnSJvOrQ7DGe0ixuUhstVWnx4sW2TRZm6qlBgwZ45513MHToUNsv1YvtqpQVXHF9/fXXdrtt3rzZ9tevXx/Tpk3DsGHDbD8DLi5VGxIRERERETm6RN4Y7ojleGRRaKmW8VCZlqrxxRdf4LzzzsP3339v+5s0aYL33nsPF1xwge2Xmunzzz/H+eefj+3bt9v+Ro0aYcaMGbjoootsPxvUVbUhERERERGRo1cUjeH2QJraY6kWn3zyiW14ddeuXba/efPm+OCDD3DWWWfZfqmZ2Eju4MGDi7db06ZNMXv2bFuFyKVqQyIiIiIiIke3CAMtg3DHI8vxruoJVbn3338fQ4YMwd69e20/M+Jz5sxB3759bb/UTCxtlJ6eXrzdWrZsaasZnX766bbfpWpDIiIiIiIiR7eIqw49de9CTBrhbZ+FSW20xBLb8bjssstw4MAB23/88cfb0i29evWy/VIzTZ061ba/cvDgQdvfpk0bW7qld+/ett+lakNVr03bM5yusmk8fxrPn8bzp/H8aTx/Gs+fxvOn8fxpPH8az5/G81dd4wWys7OL2LFt27aYVGPgdDp37uz0le2hx57E/ePudPrqttdee82+rjkvL8/2d+jQwVYXat++ve2Xmsl9zXZ+fr7tb9eund1uHTt2tP1ezzzzDG6//XbbzbcXscRLXRbN8c9Xm4c7P7nnHDu9u4Y7Q0VERERERI6MyNtoWfsMBtlSLIPwzFrTz7cQDXoG7JTKeeGFF3DdddcVB1m6du1qS7IoyFKzPffcc3a7uUGWtLQ0u938giykakMiIiIiIiJHvwgDLWvxzOipGL4oG1NudAYNugOPYCreU6SlUv72t7/h5ptvLm4g9eSTT8bcuXNx3HHH2X6pmZ566imMGjUKhYWFtr9Hjx42yHLCCSfY/lCqNiQiIiIiIlI3RBhoWYOMhXrrUKz98Y9/xJ133lmcWT/ttNNsdZJWrVrZfqmZHn30UbvdiopsrTv06dPHBseOOeYY2+9HbxsSERERERGpGyJ+69DFN04q/dah2U/hXgzHRQq+VMj999+Pe+65pzizfvbZZ9tXATdr1sz2S81033334d5773X6gP79+9vgGF/BXRZVGxIREREREakbIm6jZdD4Rej8p1SMmLQQ9/ZJReoIk3mcfRsUZ4neXXfdhYcffrg4yDJo0CD7euDGjRvbfql5uK3Gjh2LP/zhD84Q4LzzzsOsWbPQpEkTZ4g/VRsSERERERGpOyJvDBcdcNvsbGRnu2k8Bjl/kciwitAtt9yCv/71r84Q4NJLL8U777yD+vXrO0OkpnG32/jx450hQHp6Ot599100aNDAGRKeqg2JiIiIiIjUHREGWmZjTOoY83+vtXhmUOgwCYcZ7RtvvBETJkxwhgBXXXUV3njjDSQnJztDpKbhG4X4+uaJEyc6Q2BLpEydOhUpKSnOkLKp2pCIiIiIiEjdEUWJFj/Lkam3DpWLr22++uqr8fLLLztDYIMur7zyChITE50hUtPk5ubaYNi///1vZwjwk5/8BK+//jqSkpKcIeV7+umn8cADD6BXr16qNiQiIiIiInKUKyfQwlIrqUhNHYFJ5t+IVHa7qQ/u7fFr3KZGWsqUk5OD4cOH25Irrttvvx0vvPCCba9DaiZut2HDhtlqPy6+zvnFF1+Mert1794dv//977FkyRJVG6pibdqe4XSVTeP503j+NJ4/jedP4/nTeP40nj+N50/j+dN4/jSev+oaL5CdnW1bZN22bVtMMoGcTufOnZ2+sj302JO4f9ydTt/RZ//+/bYNFr6VxnX33XfjT3/6k9MnNdG+ffvsdpszZ44zBLYh3L/85S8IBALOEKmsaI7/jIyMsOcn95xjp3fXcGeoiIiIiIjIkRF51aHZYzylWdykNlrC2b17Ny688MLiIAsz6Kw+oiBLzcbtNnjw4FJBFr7SmQ0YK8giIiIiIiIi5Ym8MdwRy/HIIu9bh/TmoXB27tyJCy64APPmzbP9zKA//vjjtvqI1Fw7duywr2xesGCBMwR49NFH8dBDDzl9IiIiIiIiImWLojHcHkhTeyzl2rp1K84991x8+eWXtj8uLs42hnrXXXfZfqmZ3O22aNEi28/g2JNPPolx48bZfhEREREREZFIRBhoGYQ7HlmOd1VPqEwbN27EgAEDsGzZMtufkJBgG7299dZbbb/UTBs2bMA555yD5cuX2342dvvss8/ijjvusP0iIiIiIiIikYq46tBT9y7EpBFqoyWcNWvW2Mw6G+0kvv731VdfxQ033GD7pWbKysqy2y0zM9P2MzjG13DfdNNNtl9EREREREQkGhGXaBlfqm0WtdHitXLlSluSZd26dbY/JSUFb775JkaMGGH7pWZasWKF3W7r16+3/cnJyZgyZQquueYa2y8iIiIiIiISrSjaaJmNMaVKswzCM2udP9Vhixcvtm17bNq0yfY3aNAA77zzDoYOHWr7pWb6+uuv7XbbvHmz7a9fvz6mTZuGYcOG2X4RERERERGRiogw0LIWzwwaAUzxlGZZNBxT+9TtqkNffPGFfUvN999/b/ubNGmC9957z75xSGquzz//HOeffz62b99u+xs1aoQZM2bgoosusv0iIiIiIiIiFRVhoGUNMhbeiIu99YQ6XIThpy5HZh0t1fLJJ59g0KBB2LVrl+1v3rw5PvjgA5x11lm2X2qmjz/+GIMHDy7ebk2bNsXs2bNtFSKp/dq0PcPpKpvG86fx/Gk8fxrPn8bzp/H8aTx/Gs+fxvOn8fxpPH/VNV4gOzu7iB3btm1D69at7cDDsURLH2T8Ohvj3WDL2mcwqE8Gfh3STgun07lzZ6evbA899iTuH3en01d7vP/++7j88stx4MAB28/1xsx6r169bL/UTCxtxO128OBB29+yZUvMmjULvXv3tv1SvaI5/tnIdLjzk3vOsdO7a7gzVERERERE5MiIsERLB9w2ewrgfeuQT5ClLvjvf/+Lyy67rDjIcvzxx2Pu3LkKstRwU6dOte2vuEGWNm3a2NItCrKIiIiIiIhILEXRGG7om4fqXpDltddes28SOnTokO3v0KGDrULUpUsX2y81E1+zPXLkyOLt1q5dO7vdunfvbvtFREREREREYqXcQMvaZwYhddAzCG2KZfaYVKSOqTtN4b7wwgu47rrrkJeXZ/u7du1qM+vt27e3/VIzPffcc3a75efn2/60tDS73Tp27Gj7RURERERERGKpnEDLWrw3FXhkwm3o4AxxDRo/BTdOerdOvHXob3/7G26++WYUFBTY/pNPPtlWFzruuONsv9RMTz31FEaNGoXCwkLb36NHDxtkOeGEE2y/iIiIiIiISKyVE2jh24Z6IC00ymJ1ROc68NahP/7xj7jzzjuLM+unnXYaPvroI7Rq1cr2S8306KOP2u1WVGTbekafPn1scOyYY46x/SIiIiIiIiJVoZxAS1nBlLKCMEeH+++/H/fcc09xZv3ss8+2bxdq1qyZ7Zea6b777sO9997r9AH9+/e3wTG+gltERERERESkKpUTaOmA237dA/f2GRNSRWg2xqSOwPJH7jhqG8S966678PDDDxcHWQYNGmRfD9y4cWPbLzUPt9XYsWPxhz/8wRkCnHfeefYVzk2aNHGGiIiIiIiIiFSdchvDxaDxyF7UGX9yX+ts0whgSjZm33b0FWdhFaFbbrkFf/3rX50hwKWXXop33nkH9evXd4ZITeNut/HjxztDgPT0dLz77rto0KCBM0RERERERESkapUfaKEOt2F2qVc7Z2P8UViUhY3d3njjjZgwYYIzBLjqqqvwxhtvIDk52RkiNQ3fKHTDDTdg4sSJzhDgiiuuwNSpU5GSkuIMkbqgTdsznK6yaTx/Gs+fxvOn8fxpPH8az5/G86fx/Gk8fxrPn8bzV13jBbKzs23dmG3btqF169Z2YGVwOp07d3b6yvbQY0/i/nF3On1HFl/bfO2119qgiotBF74eOD4+3hkiNU1ubi6uueYavPXWW84Q4Cc/+QkmTZqk7VbDRXP8Z2RkhD0/ueccO727hjtDRUREREREjozISrQc5XJycjB8+PBSQZbbbrsNL7zwgjLrNRi327Bhw0oFWfg65xdffFHbTURERERERI6IOh9o2b9/P4YOHWrb8nDdfffdePrppxEIBJwhUtPs27fPtsEyc+ZMZwhsQ7j//Oc/ERen+KGIiIiIiIgcGXU6R7p7925ceOGF+PDDD20/AysPPPAA/vSnP9l+qZm43QYPHow5c+Y4Q4KvdGYDxgqOiYiIiIiIyJFUZwMtO3fuxAUXXIB58+bZfmbQGWD5/e9/b/ulZtqxY4d9ZfOCBQucIcCjjz6Khx56yOkTEREREREROXLqZKBl69atOPfcc/Hll1/aflY1YVWhX/3qV7ZfaiZ3uy1atMj2Mzj25JNPYty4cbZfRERERERE5Eirc4GWjRs3YsCAAVi2bJntT0hIsI3e3nrrrbZfaqYNGzbgnHPOwfLly20/G7t99tlncccdd9h+ERERERERkZqgTgVa1qxZYzPrfFUsJSUl4dVXX8UNN9xg+6VmysrKststMzPT9jM49vLLL+Omm26y/SIiIiIiIiI1RZ0JtKxcudKWZFm3bp3tT0lJwZtvvokRI0bYfqmZVqxYYbfb+vXrbX9ycjKmTJmCa665xvaLiIiIiIiI1CRx27ZtAxO53ZVJNdGSJUts2x6bNm2y/Q0aNMA777xjX+ssNdc333xjt9vmzZttf/369TFt2jQMGzbM9ouEatP2DKerbBrPn8bzp/H8aTx/Gs+fxvOn8fxpPH8az5/G86fx/FXXeIHVq1cXde7c2emtXg899iTuH3en01d1GGBh1ZO1a9eiSZMmmD59Os466yznr1JTfffdd3a7ffvtt2jUqJENjrF0ixwdojn+Wd2vdevWTl9pDPDyHGand9dwZ6iIiIiIiMiRUSeqDh133HH44IMPcPLJJ9tPBVlqh+OPPx4ffvghevbsidmzZyvIIiIiIiIiIjVenWmjpX379vj666/Rt29fZ4jUBtxurEJ0+umnO0NEREREREREaq469dahQCDgdEltEhdXp3ZTERERERERqcWUgxURERERERERiREFWkREREREREREYkSBFhERERERERGRGFGgRUREREREREQkRhRoERERERERERGJEQVaROSo0abtGU5X2TSeP43nT+P503j+NJ4/jedP4/nTeP40nj+N50/j+auu8QKrV68u6ty5s9NbvR567EncP+5Op09E6pJojv+MjAy0bt3a6Stt27Zt4DnMTu+u4c5QERERERGRI0MlWkREREREREREYkSBlorIGo/+/ccjy+m1/IZJDZCF8f0DCGjbiIiIiIiISDVQoCVWOo3B/Plj0MnplRoiazomY5T5NxnTFWkRERERERGRKhZBoCVYImD0zJLuQCCA/uOVay3FLdHifI4fHVxPTMF154zjDAsE+kOrsOplTZ8MjLwbw3otwGQ30lJqG43GzNB+d5zibeUZ5paMsX93htvjwu0WERERERGRuiyCQEsmVi4YhWFDTOfMxzG21wwUFc1Ar7GPK2MZzoKxWDmsyKwnk2aMwsSHmDmfidFpK3E/hzFljsTk61WdpWplwcZZhnbCkGGjsGDy9JL1XbyNJoC7dul+bqux6DUjuK0yn1iKdEbLOnVBrwUrzRFhpmwm3GsUMM0eBOYYQTeksVNERERERETqtKiqDs2cNhH9ujE7mYZu/ZZitaIE/vo9gbtt7t1I64Z+/MxajaWYiHS3lITJyC9wMu1SRWy1oZEYyvpcQ4Zh1AJP9SHvNiJvP7eVp7/T0JHoN3EaZmIIho0K7veZK3th2N3dsJSRFo7fq4uqjYmIiIiIiEgkgZYhmDADNkCQPnEU7h9jspMs2eJmYCVyJvOe6ZZosckpTSFVgqVOFiwYizQb3ErHRHiqD1VQWjdgZeZMTFvaDWmdhmLk0mmYmbkSvWyRLxEREREREanrIivRMmRC6cAA+9Xwa3RstZOxeFz1raoJqw0twCin+o9NM0KqD4UTsq1swGbUMLvvs3QLHnoIS0cONft/J7B32jTAFvQSERERERGROi+CQMtMjC5u9NOlxj/ZpkewpISnsdQyDcGEzCewNN39jkluw6oSe7baUEj1ILf60HqnP6zS2yptbC/MmOBMqFMXs+2D7b64vROXdlPprhqiTdsznK6yaTx/Gs+fxvOn8fxpPH8az5/G86fx/Gk8fxrPn8bzV13jBVavXl3UuXNnp9cPAy3TMKxUNRcGWq4HXpoP1iSqqIceexL3j7vT6RORuiSa4z8jIwOtW7d2+krbtm0beA6z07truDNURERERETkyCijRIv7Kme2beFpxNWmNIztdX+lgiwiIiIiIiIiIkebMgItnTBmvqd9i9DkVqUQERERERERERErssZwZ472lGZxUx1vo0VEREREREREJERkjeGmL8UTmaGlWvRqYhERERERERERr8hKtKAXuqg9FhERERERERGRMkUQaBmCu59YimmqJyQiIiIiIiIiUqaIqg49PnYBJqarjRYRERERERERkbJEVKJlQqm2WdRGi4iIiIiIiIiIn8jaaMkaj/62FEt/jM8y/XwLUf/xYKeISE3Rpu0ZTlfZNJ4/jedP4/nTeP40nj+N50/j+dN4/jSeP43nT+P5q67xAqtXry7q3Lmz0+snC+P7Xw+8NB9dHu+P1XfPx5hOJcPGVKKR3IceexL3j7vT6RORuiSa4z8jIwOtW7d2+krbtm0beA6z07truDNURERERETkyIigREsmVi7QW4dERERERERERMoTURstw0ZNLP3WoZmPYyxGYqiCLyIiIiIiIiIixSJqo2XIhEx0eyiA9IkLMDYtgEA6MGP+GCjOIiIiIiIiIiJSIrLGcNEJY+brjUMiIiIiIiIiImWJLNDCtwzZtw5502h4axOJiIiIiIiIiNR1EQRaZmJ0+lI8kekt0aJSLSIiIiIiIiIioSKsOqS3DomIiIiIiIiIlCeCQMsQ3P3E0tJvHRIRERERERERkcNEVHXo8bELMDFdbbSISM3Wpu0ZTlfZNJ4/jedP4/nTeP40nj+N50/j+dN4/jSeP43nT+P5q67xAqtXry7q3Lmz01u9HnrsSdw/7k6nr/aaN28ezj33XKfvcIMHD8a7777r9IkIRXP8Z2RkoHXr1k5fadu2bQPPYXZ6dw13hoqIiIiIiBwZEbbRMhOjS5Vm6Y/xWc6fBK+//jry8/PDptmzZ2Pnzp3O2CIiIiIiIiJytIog0JKF8f3TgRmeNw5ljsTkNFUdosLCQrzxxhtOn7+8vDxMnTrV6RMRERERERGRo1UEgZZMrFwwCsO873LuNBQj+y3FapVqwaeffootW7Y4feFNnjzZ6RIRERERERGRo1UEgZY0dOs3sfRbh7KmY/ICvfKZIg2gzJkzB9u3b3f6pCYoKCjAxo0bbbCMpZKef/55/OUvf8EjjzyCRx99FI899hiefPJJvPTSS3jnnXfw1VdfITs72/m2iIiIiIiIyOEibAyXbbSkY6LTB4zCjKIJ8BZyqYja3hguM+rHHXecbYwzEv/85z8xevRop0+qE6t4ff311zaosmjRIttt9n1brStazZs3R8+ePdG3b1+b2BDyMccc4/xVIqXGcEVERERE5GgUYWO4QzDBbZ/FpsoHWY4Gc+fO9Q2ypKWlOV2lqfpQ9dq3bx/+85//YMSIEWjRooUNiowdOxYvv/wyli1bVqEgC7FhY257ln655ppr0KZNG5x88sn4zW9+YwM4IiIiIiIiUndFFmjJGo/+pd46pIZwKVzg5B//+AeSk5OdvhLhAjMSW/Pnz8d1111nS0AwEMJqQbt27XL+WiIlJcUGxc477zz8+Mc/xq233mqDJffffz9++9vf4p577sEdd9yB66+/HpdccglOOeUUpKamOt8uweDjkiVL8Kc//Ql9+vRB9+7d8de//hW7d+92xhAREREREZG6IoKqQ3zrUBpW3l+ECW4xlpmjEXioGzLnj0FlmmmpzVWH+NpmlmQIbXelXbt2+Pbbb23GfPr06c7QEk8//TRuu+02p09ihcEOtqPy4IMP2rZUQjHwddppp+Hss8/Gqaeeaqv+dOjQAXFxERbq8vjhhx9sYIWlV7744gt8/PHHvgG0hg0b4uc//7kN2LRq1coZKi5VHRIRERERkaNRxd46NORuPIHJmF6H3zoUrnHbyy+/3H5eccUV9jOUqg/F3oIFC2wQ5bLLLisVZGnUqJEt2fLWW2/Z6j6ffPIJ/vCHP2DYsGHo1KlThYIs1KxZM9suC6shsWoS3zrFwAuDPKxC5GLVpfHjx6Njx4743e9+h4MHDzp/karSpu0ZTlfZNJ4/jedP4/nTeP40nj+N50/j+dN4/jSeP43nT+P5q67xImoMd+bo/lh993yMKS6+wsZxp2FYJdtqqc0lWm6++WY899xzTl8JVlvp16+frarCJ/Ch7YAwc//dd9/h2GOPdYZIRe3Zswe//OUv8a9//cs2dus66aSTbJWfq666ypYqqW4s6cKGj//973/jwIEDzlDY4M6ECRNsVSVRiRYRERERETk6RfBIfyamTVyAsWneNlr4BqKJSK+j7bWw2tDUqVOdvhJ8A9EZZwQjWk2bNvXNUDMgwDZDpHIWLlxo20PhK5ndIAsDLG+//TYWL16Mm2666YgEWYhtuTCgsmbNGlvqhW3BUFZWFgYNGmTbgOEbq0REREREROToE0GgJfSNQ6Gp7r2B6MMPP7RVUUKx2hADUa4rr7zS6SptypQpTpdUBANV55xzjg1kUOPGjW3bN3xtM9vG8W6DI4mvfGajuEuXLkV6erodxqDQww8/jIsvvhj79++3w0REREREROToEVEjFVnj+zslWbyp7r556PXXX3e6Sgttl4VtgSQkJDh9JebNm4dNmzY5fRINVtdilaCcnBzbz2paLMHCBobj4+PtsJqGVYbeffddPPPMM8WlW95//30MHjxYbyYSERERERE5ykRUdejxsb0wQyVZrNzcXEybNs3pK8H2I/hGG68WLVpgwIABTl8JlmpQqZbosbrWLbfcUlxV6Nprr7Vv/Gnfvr3tr+n4+mgub8uWLW0/2/NhcC60HR8RERERERGpvSKqOjRs1FKsrsNvGPL64IMPbEO3oVh6xe8tNuHePqRAS3RWrlyJn/zkJ8Vtm7ANFjY2m5SUZPtri9NPPx2ffvppcbCF1dDuvLN2NggtIiIiIiIih4uo6lBaN4Q0hlt3qw6FqzYUrj0WttviV6WFryTeuHGj0ydlYYkPll5x3+DD9k3Y2Cz3w9qoS5cueOedd4qrEfENRaxKJCIiIiIiIrWfqg5F4dChQ/jvf//r9JVo3rw5zj33XKevNFYpOuuss5y+ElyHkydPdvqkLC+88IJth4XatGmDSZMm1dj2WCLFki1/+MMfbDf3hdtvv92+zUpERERERERqt8Dq1auLOnfu7PT6mzm6P1bfPR9jOjkDYuShx57E/eNqT7UJlkK49NJLnb4SP/vZz+xrhsP529/+hjvuuMPpK8HM9ueff+70iR8GH9gGy3fffWf7GWS54YYbbHdtx7Zmevfubd9KRC+++CKuv/56210XRHP8Z2Rk2KCln23btoHnMDu9u4Y7Q0Vqt0DSv5yumq0o96dOl4iIiIi4IirRMm3iAlUdMsKVQAnXDouL1Yf82m/53//+h3Xr1jl94odt4rhBlo4dO+K6666z3UcD7hO//e1vnT7g2Wefdbqkotq0PcPpKpvG86fx/B2p8Y4WR8v20Hj+NJ4/jedP4/nTeP40nj+N56+mjRdRiZaqUptKtPB1wnyivmfPHmdIUGpqqn2iXl6jrGeeeaZ9y0yoP/7xj/j1r3/t9EkoNoD7yiuv2O7f/e53+L//+z/bfbTgftWqVSvs3bvXBl42b94ctuTG0UYlWkTCc0u01NQSIzV9+URERESOpIgaw2WpltGlSrP0x/g69hai995777AgC11yySURvfkmXGO5evtQ2dwgC3XqFOO6azUAG8RlEI5YlWjRokW2W0RERERERGqnCAItWRjfPx2Y4WkIN3MkJqfVrapDFa025GL1IQapQn355ZdYs2aN0ydl8WtU+GjgLVGWmZnpdImIiIiIiEhtFEGgJRMrF4zCMO8rhjoNxch+S7G6jpRqOXjwoG0IN1SjRo1w4YUXOn1la9u2LU499VSnrzSVavHnvs7ZxTcOHY3q16/vdAXfbCUiIiIiIiK1VwSBljR06zcR07zFV7KmY/KCXuhy9NXk8DVjxgzs27fP6Stx8cUX26ofkQpX+kWvefbHAETTpk2dvsMDL0cL776VmJjodImIiIiIiEhtFEGgpRPGzJ8BpHvaaElbifuLJsBbyOVoVtlqQ65w7bR8/fXXqjISRlpamtMFrF692uk6uixfvtzpKv17RUREREREpPaJsDHcIZjgts9iU90JsrAUxbvvvuv0lWBpiyFDolsLHTp0wCmnnOL0laZSLf769u3rdAEffvih03X0YGmWL774wnYziBlu/xAREREREZHaocxAS9b4/gj0H4/Qplhmjg4gMLpuNIU7ffp07N+/3+krcdFFF6FBgwZOX+TClWpRoMXf8OElr+t99dVXbaDvaPLGG28UV4k6/fTTj9p2aESk4rKeGo5AUtuQdI/TIP0cjDb9/Z9aZ/tKC/1bsP/wabXF6PecUURERESk0soItGRhusn7P/HSGIQ2xTJkwgyMmjitTrx1KFwA5JtvvsGgQYOiTsxY+1myZAlWrVrl9Ilr4MCBxa91XrFiRdj1Vxvl5eXhD3/4g9MH3HDDDU6XiEjQzNvaIu1X5lq8Yj2Kct00F0+csarCDdL3+/Ncz7TWI/PPfTDx0uEYX0cauBcRERGpamUEWvi2oXAN3rKB3KP/rUOs1sGGcP3wlcwffPBB1IntsYSjUi2Hi4+Pxz333OP0AXfddReys7OdvtrtT3/6E7KyggcR30r1s5/9zHZLxbVpe4bTVTaN50/j+TtS49FDzzEw8gTGlLoWt8OYT6YWD/t38KNcbdr+0ukqrVP6UPTDIkyeESz5Es3yRaKmr2eN50/j+dN4/jSeP43nT+P503j+aut4gdWrVxd17tzZ6fXKwvj+1wMvzQ+5waOZGB2YhmGVbKvloceexP3j7nT6ap7XXnsN1157rdNX9Xr06IFly5Y5feIqLCzEOeecg3nz5tl+NkLMoFRcXIRNDNVAn376Kc477zzk5+fbfr7iO1y1sqNVNMd/RkYGWrdu7fSVtm3bNvAcZqd3V0lVM5HaLJD0L6frAYx6ez0mXOT0HobVgW7E0j/Pxfw72jnDXKF/CzNu1vPo3/1B9CpzPqW5y1eU+1P7KSIiIiIlysipdsKY+3thbNrokCpCDLKkY+kTdx/1DeJWdwkTvn3G+wYaCWJA5V//+heaNGli+998802MHTvWdtdGrHZ22WWXFQdZWGWorgVZRCQy/Uya+PacYE8VmfnXB7EA12JYhEEWERERESlb2UUChkxAUWY3POS+1tmmdGBGEeYfXszlqLJnzx689171tw6o6kP++NpjrpvExETb/9RTT+Gmm24qDlbUFp988oktybJr1y7bf+aZZ+If//iH7RYRCfXSn/sAz90YbLT2ttgEXBb8akBxI7hM6c/1wRMrHq0zbxMUERERqWplVB2qejW56tC///1vXHfddU5fie7duyM9Pd3pq7ivvvoKc+YcftPctWtXrFy50umTUKzOxRIgbEiWGKjg24hOPPFE219T8W1JDA795je/waFDh+yw3r1746OPPkLTpk1tf12jqkMi4flVzeHbh9J+tcjpuxYzchkcqXzVITa4m/4cyqmiVJqqDomIiIiEp0BLGJdeeineeecdp6/EP//5T4wePdrpqzgGWvr27ev0lcaqJSeddJLTJ6G4Xa655pri126npqbat/fccsstNbLdFnOM4Re/+IVtDNnFUi1Tp05F48aNnSF1jwItIuGVGch47x4ELn3Vvj1o/h3fVjrQ4g6f+PNJKHpmoDOsbAq0iIiIiIRXe1sTrUK7d+/GrFmznL4SfAPO8OGxycj96Ec/Qrt2oTfFQao+VLZLLrkECxYsQJcuXWw/30J0++2328AVgzAsPVITbNmyxbYlw6CZG2Rh9Tu+OYnV0upykEVEKuGiwRhlPhas+jbYb3i7/Sz4fBHmL1jj9ImIiIhIVVKgxce0adOKq3d4nXXWWWjVqpXTV3mXX36501WaAi3l69WrFxYuXGhLirilWPjqbJZE6tOnDyZOnGhfz30kLFq0yJZ66tChA8aPH4/c3Fw7nIG1mTNn4s9//nNxWzMiIlHLWoul5qNf1/bm/wMx7OfmY9laBF8W7/HeLEw0H706t8P8BYuw4IvDxggqNT0RERERqSwFWnyEC3TwtcKxFG56mZmZNmggZWvUqBH+9re/2dc+9+vHd3MELV682AY62rRpY6sY8S1Fe/fudf5aNfi2qEceecQGeVhaiYGenP/f3r2AR1mdCRx/RwUVbcVWO91UN16SoQgpymKbpE9R2Y0abppWQFERLyWCXRNuGtBwi4tRsEmsiw3aiqA+CLZYtYSCStWaWGnxgopMAotVuztex1ZFQZ2dc+Z8yUw4M5nARzKZ+f/2+cw537z5kpmPzD7z9j3v+ewz/VifPn3khhtu0DHnnHOOPgcAyfD0ntVu57+dUntFZJegSrP8p3jaHCl4boFMuH2nnkdslNLRD4jkz5GZCfuu7H09AAAA7B8SLe2o3WCie2k41JIPt5YNOVRy4Dvf+Y6ZxaKqJXn5+fnS2NioK5Gi+96o5MrKlSv11snf+MY39OtdUVEhDz74oLz++uvy5ZdfmsjOUUvLVHLnv//7v+Xiiy+W448/XgYOHKiTKdEJsiOOOEKmTZsmO3bskJtuukknXACgM2ryH5DhUTsEeXqfIVNljjTrRrhGzpXSuHuZ5MXsJjRRlo6ulMUlIfldzd3S+NxmaWpqkZfD4bG7DlmuBwAAgP1CoqUd1aDUWeoRTX2YP+6448zMHYmSN6tXrzYjJOu8887Ty4n+9Kc/ybhx4+Twww83j4jeBvq5556TW265RS688ELp37+/fvzEE0+Us846S8aOHSuTJk2SmTNnyuzZs+XGG2+UyspK3WNFbSOt7tPpp58u3/72t/UuQWoZmVq2pHY8euutt8xPiVA7U9XV1cnbb78tt912W9wmrnBfVna+GSVGnB1xdt0Vp5Q//YaEdrc7nr5ScszjSuR6Z0l9u7hnpw8O/z+a8EPqCGt87i254NZKWWyOZ59ak+B67umu1484O+LsiLMjzo44O+LsiLNL9zh2HWrn3HPPlT/84Q9m1mbRokUyY8YMM3PPH//4R/1B30YlDeLtTISOqYoWVeWijieeeEJXohwIqkfMoEGDZOTIkTJmzBjdPwYdY9chID63d/W5reZunXCZXq4auuw/dh0CAACIj4qWKO+//748+eSTZhbL7f4sjh/96Edy7LHHmlkslg/tH9XD5dJLL9U9Wt577z293EclzFTfFvXBfF8b0qr7VVRUpKtfHnroIXnnnXd0A9wFCxaQZAEAAACADEdFS5S77rpLLx9pTzU4/etf/2pm7lM/U/3s9tQuNaq/h1piBPep5URvvvmm7Ny5UyfZPvjgA131onq3qC2i1euukjV9+/bVy4VULxZ1T9Q57D8qWoD4qGgBAADouahoiRKvgiTeNsxuiVctoxIAzz//vJnBbYccckhrjxbVMNfp0aIa5s6aNUt/veaaa3TD2+HDh+tqFZIsAHqiwoLBUvCDwWYGAACAA4lEi/Huu+/qfik2B2rZkGPYsGG6YsKG5UMAgP1VkD9YJ1sAAABw4JFoMVQfD7WUpL0BAwbId7/7XTM7MFSvkFGjRplZLLX7kFrGAgBAYhultHe2FN6+08wBAADQHXSPFjN2TbI9X1KpR8uKFSvk5ZdfNrM2hYWFcbdgdpPaYShe9cp1110Xt2Eu0FPRowWIz+mBMknmyVI9aid/jjQ/fZIs6j1Rll61TEJL1O51KtEyUbYsfkoarz0hEneA0KMFAAAgPk8wGNSJFvVhJd4Hmc5wPvQkI5USLQC6FokWIL7oREv8xEkksUKiBQAAILWwdAgAgB7pLKnf/YZJsgAAACBVkGgBkDaysvPNKDHi7Iiz6664jkV6shx6zBAzt2u5vUQ84bjIMUsazPl44v9+Tg+YjWauKlva94SJxLT9PHX0j/qZbdeoHRoVM/RX8q3sITHnbL1mOvNcUv3+EmdHnB1xdsTZEWdHnB1xdvsbx9IhAN2CpUNAfJ1ZOtT2ePt5JDGRO0Ok5rU1Up4j0jAlW4a/ovq7XCnhaSdFrh/pGTNP/zf0iF88o19vvb6KaVh3lhSfqx/W9M+8e7ys3X2zFEddY9Ijb0i9ils3K3yNB8KDwW3XafmVFJ6yQPKcGHXK1ecCAABw4FDRAgBACmuacUZUFYc5prRVlcS3URbN2CwFi2tMEkSkeNocKXhugSxaF5nHVojYjhKpbYnEOgoWP2VGYeeeLZNks6xa61SfxCZZlOLR48P/fV22RV1HXcNJoESuoc61/Z6Sc5Lkhb9s8TvX7fi5AAAApAoSLQAApDCVlAipXizRRzJ9WVp2yJbwlzxfVDWMSWA4cq5ds/e1Yw6nUqVzYhI4ulplPyXxXAAAAFIFiRYAANJRS4s0hb8sHR1doRJZttNWKeK2SA+WyBIfk6x5RFW07KdueS4AAAD7hkQLAADpKCdHCsJfVC+U9pUq0T1c2hIXtmPvpUMJrVsvS6N7rbgliecCAACQKki0AACQjvbqc7K3A7V0yHVJPBcAAIBUQaIFAIC0dJbMXDxYmmZMjalKabl9VueqVDpDV55EN8fdKKVu9GjpjucCAACwj0i0AACQplTFSvNikamntC0Hyn0oR0YeqCqVnCul8ZHxUTsl3S79F7vQoyWsy58LAADAPvIEg8GQGgQCAfF6vfrk3nbIkqLB4r8uKLVFkfHsTSKnL9wsG6acZGIi1HV8Pp+ZJVZVXSeVFWVmBiCTdObv3+/3x31/ct5z9PWml5izQM/m6X2PGaW20O7LzQgAAACOJCtatot/00QZURQebrhdZg9YLcHgahkw+3bZEAkAgG6XlZ1vRokRZ0ecXXfFpYt0uR/E2RFnR5wdcXbE2RFnR5xdqsUlWdGyQcr7/l5GBGslPJBbfaqSRWRJUalI/QaJLmqhogVAMqhoAQAAAJCOkqxoKZLa1SJj+vaVMcsmynUqs6IqW6REzo1dOQSktpZaKSyslRbnqzkNAAAAAIAbkm+GW1QrwWAwfNSKWkGk5xumSOblWVqkttAjHs/eR2Fntj7gg/6BpV7fve5RodS+YR53cB8AAAAAAC5KPtGyY4kU9e0rffsWyZId4fmGculbtETUMLPkSHljSEKh8NFcIwUFNdKsxuGjsZytD1JK1L2JHI1Snm0ec+SUS2NjefiuAgAAAACw/5JMtOyQJaVrpGRzUFZPNKeKrpWFskbWZV6mxS6mgqJQIsUtDVIanrdWuugY9ViL1E6YKk1NUyU3+nF0PaeiRX8tldKoaqXSBieksPWcx6l+sd5vAAAAAECm68SuQwMkl34scTRIae5WqXQqJ5rHyqoJ6gN5sdQ314hMXRSOUMmVVTK2uVHKc3KkfHlbNQyVMAeISWTtlSSJp2mL9F9u7uHaSbJ0eKk0tNTKhKl5stbc27V5W6U57v0GAAAAAGS6pJvhjpi4TH4fvZczzXDbtGyTLbJUhjsf6HNVtYr6QB6WUy7La7aEH8uVVWOXCzmVLtR+6VBHS4QKxspIJ6D4fJkUvqvbpJ/k6XtbKqrApbi+XooT3W8AAAAAQEZLukdLUe1m8d2qdh3aJLMH95W+Y0RWZ2Qz3Dj26gcS/kBuHsrpl2dG6HmKpV7fz/PlYZ1YiSRcEt1vAAAAAEDmSr4ZrpwkUzaoXYecw+w+BJVJkbymqbLI9PSI1SClw0XWhtZK3tQJsb08qIJIXQ0Py1JV4SK1Uqpvmkq4NEtNgalyiXu/AQAAAACZrINEywYp71se/q/6qnYcan+ox6A/hDfXyJbhZimJOnQ/ENUMV2VZVLVDOGZtnkzNNRUROeVSOSmy/IRmuAdI+x4ttu2do0XHq9umlhrl9JPwTTPf7yz/ine/0d2ysvPNKDHi7IizI86OODvi7IizI86OODvi7IizI86uq+I8wWAwpAaBQEC8Xq8+uT/UdXw+n5klVlVdJ5UVZWYGdCO1i9AEkeVs9dxlOvP37/f7474/Oe85+nrTS8xZAAAAAOgeSS4dcipbAAAAAAAAEE/Suw5du/DV2F2HgHSSUy6NVLMAAAAAAPZT0hUtt8/eJMvG0KMFAAAAAAAgnqQrWmpbdxti5yEAAAAAAACbJBMtIjuWFLWrZqGiBQAAAAAAIFonlg4NkNXBzbLw9Inhr0EJbl4op08cQUULAAAAAACAkXRFS8RJkjvAGZ4rJa/eKkt2mDkAAAAAAECGSzLRcrL4Tn9VmneERz5n96Ht4t80QHJP0gEAAAAAAAAZL8lEy0kyZcMGmXJSeDRlg4z4verPcqv4NtMMF0DqyMrON6PEiLMjzo44O+LsiLMjzo44O+LsiLMjzo44u66K8wSDwZAaBAIB8Xq9+uT+UNfx+XxmllhVdZ1UVpSZGYBM0pm/f7/fH/f9yXnP0debXmLOAgAAAED3SLoZbjk7DAEAAAAAACSUZKKlSK5d6PRmAQAAAAAAgE3SFS23z94ky8ao3izRB1UuAAAAAAAAjqQrWmqDQQnuddAMFwAAAAAAwJFkoiVsxxIpopoFAAAAAAAgriQTLTtkSelsGbA6qppltciYoiXhRwAAAAAAAKAkmWjZLv5NE2VE9DqhomtloayRdWRaAAAAAAAAtKR7tIyYuKzdrkMq+TJAck8yUwAAAAAAgAyXINGyQcqjerKMWSbtdh0aI+FTAJAysrLzzSgx4uyIsyPOjjg74uyIsyPOjjg74uyIsyPOrqviPMFgMKQGgUBAvF6vPrk/1HV8Pp+ZJVZVXSeVFWVmBiCTdObv3+/3x31/ct5z9PWml5izAAAAANA9Olg6pKpa1O5CsdUtbQc7DwEAAAAAADg6SLQUSW2wNvxf9TVqx6HWQz0GAAAAAAAAJclmuDZOtQsAAAAAAACU/Ui0wPHll1/Km2++Kc8884w89NBD8qtf/Upuu+02Wbhwodx8881SXV0tdXV1snz5cnn00Uflr3/9q64IAgAAAAAA6WU/muGqipbfy4h2y4fSvRnuV199JS+88IJOqmzevFmPt23bJnv27DERyfvmN78pAwcOlCFDhujjzDPPlG9/+9vmUSgtLS1SXFysv6arnJwcaWho0F8zCc1wAQAAAKSjJJrh2prgqiNztnf++OOPZeXKlTJmzBg55phjdFJk6tSpsmLFCnnllVf2KcmivP/++/LUU0/p6peLLrpIsrKyZNCgQXL99dfrBA5EVq9endZJFkU9P/U8AQAAAAA9XxLNcG1NcJ0jvZvhNjY2yqWXXqr/l3SVCFHLgj788EPzaJvevXvLcccdJ//2b/8m55xzjvz4xz+WSy65RC6//HKZOHGiTJgwQSdpVGXGD3/4Q/2/vh955JHmu9uEQiF5+eWX5dZbb5XBgwfLKaecIj//+c/lo48+MhGZZ/fu3WaU3jLleQIAAABAutuPpUN2PX3pkEp2qD4qCxYs0L1U2uvVq5dOgJx66qnSv39/Ofnkk+U73/mOHHRQ59vdqASKqmZQyyJeffVV/fNsiRyVlLnqqqtk1qxZ8q1vfcuczQzz58+XefPm6bH6OnfuXD1OB+n83JLB0iEAAAAA6YhmuFGamprk+9//vpx33nkxSZY+ffroahTV1Hb9+vVSX18vkydP1j1Vjj/++H1KsihHHXWUroJR1TI33XSTrF27Vu677z756U9/GtOvQy1dqq2t1UmdOXPmyK5du8wjAKJlZeebUWLE2RFnR5wdcXbE2RFnR5wdcXbE2RFnR5xdV8VR0RL2j3/8Q6ZNmyb33HOPbnbrUImNcePGyX/8x3/oZEtXU012f/vb38q6devk888/N2cjzVNVsmfYsGHmTPqioiV9UdECAAAAIB1lfEXLpk2bdD8UtSWzk2RRCRbVJ0VVl4wePbpbkixKv3799HIhlWy58MILdS8YRS03KioqksrKSr21NAAAAAAASA0ZnWhRzW2HDh0q27dv13OVUJkxY4YsX75cn/d4PPp8d1PbQJeXl8v9998vBQUF+pxKCqnlRiNGjJBPPvlEnwMAAAAAAN0rYxMtd999t14W9Nlnn+n5wIED9XbNF1xwgRx88MH6XKpR/WDULkQzZ85srW75wx/+IGeffXZG70wEAAAAAECqyMhEy5o1a+Tqq69uXSqkEhVLlizRuwelOlVl85Of/ETuvPNO6du3rz6ntqFW5/bs2aPnAAAAAACge2RcomXr1q1yySWXtPY2GTVqlG5K6lSI9BQDBgyQX/7yl63JlieeeELKylJrq2wAAAAAADJNTKJF7d6xv0cqUxUf48ePl08//VTPCwsLpaKiImV6sXTWCSecIIsXL25NEqnEi1pKBAAAAAAAukdrokVtnerGkcp+/etfy4svvqjHxxxzjMyZMydl+7EkS/WWUcuglFAoJNdcc4188cUXeg4AAAAAALpWxiwdUskHtUuPY/Lkya3Lbno6tfWz2pJaUTsoPfDAA3oMAAAAAAC6VsYkWh5//HF566239Fg1vT333HP1OB0cdNBBMnHiRDMTueuuu8wIyCxZ2flmlBhxdsTZEWdHnB1xdsTZEWdHnB1xdsTZEWfXVXGeYDAYMmNXqD4tPp/PzBKrqq6TyoquaeCqGuDef//9enzFFVfIpEmT9DhdfP755zp5tGvXLp14+fvf/57yS7mSoRoVz5s3T4/V17lz5+pxOkjn55aMzvz9+/3+uP+enfccfb3pJeYsAAAAAHSPjKlocZIsynHHHWdG6ePQQw+VQYMG6bHatnrz5s16DAAAAAAAuk7GJFqiOQmJdPOv//qvZiTS3NxsRgAAAAAAoKtkRKLF2c7Zceyxx5pRelFVLQ61lAgAAAAAAHStjEi09OnTR44++mgzE/nss8/MKL2o/iyOXr16mREAAAAAAOgqGbN0KDc314xE/va3v5lRetmxY4cZxT5fAAAAAADQNTIm0TJkyBAzEnn++efNKH2o5VGvvvqqHns8HjnttNP0GAAAAAAAdJ2MSbSUlLRt+7p+/Xq9M086efLJJ1v7svzgBz+QrKwsPQYAAAAAAF0nYxItZ511luTk5Ojxzp07ZePGjXqcDr744gtZtmyZmYlcdtllZgQAAAAAALpSxiRaDj74YJk1a5aZidTV1ck///lPM+vZVqxYIW+99ZYeZ2dnyxVXXKHHQKbJys43o8SIsyPOjjg74uyIsyPOjjg74uyIsyPOjji7rorzBIPBkBm7IhAIiM/nM7PEqqrrpLKizMwOPLVcaOjQofLss8/q+ZlnnikLFy6Ugw7qufmmF154QX72s5/Jl19+qeerV6+WCy64QI/Twfz582XevHl6rL7OnTtXj9NBOj+3ZHTm79/v94vX6zWzWM57jr7e9LYlggAAAADQHTKmokVRCZV77rlHjjrqKD3/4x//KDU1NRIKuZpr6jLNzc0yc+bM1iSLWjKUTkkWAAAAAAB6moxKtChq2+NVq1ZJr1699FxVgPzXf/2X7nPSk2zevFmmTJkiH3/8sZ7/8Ic/lDvvvFOPAQAAAABA98i4RIty9tlny7333tuabHnsscd00uL//u//9DyVqeqblStXSllZWWuPmVNPPVUeffRROfzww/UcAAAAAAB0j4xMtCgXXXSR/OY3v5EjjjhCz19++WW55JJL9DlnKU6qeeONN+Taa6+V2tpa2bNnjz43bNgweeqpp+Too4/WcwAAAAAA0H0yNtGijBo1SpqamqRfv356rpbhLFq0SC6//HJ55plnUqZ3y3vvvad7yVx88cWyadMmfc7j8cj06dNl3bp18vWvf12fAwAAAAAA3SujEy1KXl6eTl6onXuc3YfUDieqyeyECRNkzZo18umnn+rzXe3111+X6upq+fGPfywPPvhgax+ZE044QRoaGmTx4sWty58AAAAAAED3y/hEi/K1r31NfvGLX+htnwsKCszZyK4+t9xyi4wYMUIqKyvlySeflE8++cQ86j5VQbNjxw69M9Kll14qEydOlIcfflh2796tH+/Tp4/ccMMN8uqrr8o555yjzwEAAAAAgNRBoiVKfn6+NDY26uTGkCFDzFmRXbt2yYYNG2T27Nm6ke6VV14pd9xxhz63c+fOfe7poprZvvTSS/LQQw/JnDlzZPTo0TJ+/Hipr6/XSR6H6iMzbdo0nYS56aabdMIFAAAAAACkHhItFuedd55eTvSnP/1Jxo0bF7Obj0qqqIqS++67T1e5XHjhhTJ06FApKSmRyZMn62TMzTffrCtk1HbLv/zlL/WheqyoJMl1112nK1WKi4ulqKhISktL9RKg9evXy7vvvmt+SsQpp5widXV18vbbb8ttt90mXq/XPALAJis734wSI86OODvi7IizI86OODvi7IizI86OODvi7LoqzhMMBl3t+BoIBMTn85lZYlXVdVJZUWZmqUtVnqgqF3U88cQT8tFHH5lH3KV6xAwaNEhGjhwpY8aM0f1jMt38+fNl3rx5Zpa+1HOcO3eumWWGzvz9q75J8RKNznuOvt70EnMWAAAAALoHFS1JUD1cVM8UtfWz2gFI9XJRuxOpLaLVB7x9bUh77LHH6qoW1XhXLR965513ZPPmzbJgwQKSLEbv3r3NKL1lyvMEAAAAgHRHRYsL1G5Ab775pu7X8v7778sHH3ygq17UMiPV4FZtxaySNX379pWjjz5ajj/+eL1zkDqHxFpaWvQyK/U1XeXk5OhdpNTXTEJFCwAAAIB0RKIFQLcg0QIAAAAgHbF0CAAAAAAAwCUkWgAAAAAAAFxCogUAAAAAAMAlJFoAAAAAAABcQqIFAAAAAADAJSRaAKSNrOx8M0qMODvi7IizI86OODvi7IizI86OODvi7Iiz66o4tncG0C3Y3hkAAABAOqKiBQAAAAAAwCUkWgAAAAAAAFxCogUAAAAAAMAlJFoAAAAAAABcQqIFAAAAAADAJSRaAAAAAAAAXEKiBQAAAAAAwCUkWgAAAAAAAFxCogVA2sjKzjejxIizI86OODvi7IizI86OODvi7IizI86OOLuuivMEg8GQGbsiEAiIz+czs8SqquuksqLMzABkks78/fv9fvF6vWYWy3nP0debXmLOAgAAAED3yNyKloZS8Xg8+ihtCM9baqWwsFZanK+RqI51Jn5ffwZ6Fu4vAAAAAGSsDE20NEjp8C1S0xySUHONbKly+UOx+qBtkjhtR6HUvmEed/CBfN/s9fqGX9t9fRG5BwAAAAAAF2VmoqVlm2yRPOmXEx7nlEtjY7mooasKaqQ5FJJQ69Eo5dnmMceB+tmZIPr1bR4rq3JLRRUmAQAAAADQnTIw0dIgpblTpUmWynBVDTG4RAbHq2iIqZyIqpqIPq+vtY+cagr9tVRKC52fZZYz6ZDC1nMe5/eM93tlqpx+kmeGWtzXJ3zvW8+r17hFaieE71/TVMkNzwvDgTGvt/O95j7VlkZ/b+SKsT8rfLT/t8S9AgAAAICMkoGJlmKpb66RAqciYtUZcph5JJZKyGyVyuiqiQnqQ3QkUZO31jkfvpb5jhjmw3vcD+DtNW2R/svNNddOkqXDS6Uh/CF9wtQ8WWt+h7V5W6U57u+VwRoelqUF/SU3Monz+rRIbeFwCb+YkfPho744R8qXt/1baCzPkZzyxtbHQ2vzZOoik1EJ38+t5zvnw/dHLzfr6N8C9woAAAAAMk3mNsPtiF5eZKpe1KEqV5q2SrM6H/5gPrPYxMXTfulQR0uECsbKSCeg+HyZFP7p20RVaqjfIbIspri+Xorj/V6R78wc0Ymsqv7S7Ly+ce/bY7JKkrhv0RUow5eKbNkWSYxE3/Pc/pGESkf/FrhXAAAAAJBxSLQk0j5ZEqqXjj6nu6tY6vXPPV8e1h/WTR+Sbv+9UoDzGqgqkvbJi319fVSSJXeVjFVNkp1rm4esmrd2vGyMewUAAAAAGYVESzyq70fTVHFWjrTS51fJY2b9R8tjq/a9R0s8einMWBkptVKqm3qohEuz1BSYKhfb75WpVEPhtdJa9RP/vo2UsRLndYtO1ERVFnV4b1XlUdS/hb3E+10AAAAAAGmLREtckV4uW4abZR/q0H1WwudV747cyLkJW/OS69GiGqG23945WnS8aiWilsKEP6iHf5D5/lxZNXa5lOfE+70yWHG9NNdskeG62Wy81yfSjyX6vG5om1MulZMiy3sKHxsplXlt9yHuvW0V+29h78bI3KuulpWdb0aJEWdHnB1xdsTZEWdHnB1xdsTZEWdHnB1xdl0V5wkGgyEzdkUgEBCfz2dmiVVV10llRZmZZTC1ZGWCyHK2eu7ZGkrF8/D5EqpncVAyOvP37/f7xev1mlks5z1HX296iTkLAAAAAN2DihZgPzREbfmsK5FIsgAAAABARiPRkgpUnxGqWXqk4noa3QIAAAAA2pBoAQAAAAAAcAmJFgAAAAAAAJeQaAEAAAAAAHAJiRYAAAAAAACXkGgBAAAAAABwCYkWAAAAAAAAl5BoAZA2srLzzSgx4uyIsyPOjjg74uyIsyPOjjg74uyIsyPOrqviPMFgMGTGrggEAuLz+cwssarqOqmsKDMzAJmkM3//fr9fvF6vmcVy3nP09aaXmLMAAAAA0D2oaAEAAAAAAHAJiRYAAAAAAACXkGgBAAAAAABwCYkWAAAAAAAAl5BoAQAAAAAAcAmJFgAAAAAAAJeQaAEAAAAAAHAJiRYAAAAAAACXkGgBkDaysvPNKDHi7IizI86OODvi7IizI86OODvi7IizI86uq+I8wWAwZMauCAQC4vP5zCyxquo6qawoMzMAmaQzf/9+v1+8Xq+ZxXLec/T1ppeYswAAAADQPahoAQAAAAAAcAmJFgAAAAAAAJeQaAEAAAAAAHAJiRZkrD179khzc7M89dRTsnr1arnzzjulpqZGqqur5eabb9ZjdW7lypXy+OOPyyuvvCKffvqp+W4AAAAAAPaWEc1wW1papLi4WH9NVzk5OdLQ0KC/Ym+fffaZNDY2yp///Gf5y1/+Ii+99JK88cYb8sUXX5iI5Hg8HvmXf/kXGThwoJx22mly+umny9ChQ+XYY481EUgWzXABAAAApKOMqGhR1QrpnGRR1PNTzxNt3n33XV2Rcs4558g3vvEN+fd//3eZPXu2/Pa3v5Xt27d3OsmihEIh+fvf/y7r16+XW265RS644AKdAPje974ns2bNkk2bNukYAAAAAEBmyohEy+7du80ovWXK80xEJTnWrVsno0aNkqysLJkyZYpOiuzatctEtDnooIMkOztbzjjjDBk7dqxcc801cv3118u8efOkqqpK5syZo+elpaU6oVJYWKirWVRVSzT1M7ds2aKXHH3/+9+X3NxcWbhwofzv//6viQAAAAAAZIqMWDo0f/58/eFZueqqq/SRLu6++259KOo5zp07V48zzVdffSUPPvigLFiwQF5//XVzto1KjuTl5ellPkOGDJHBgwfrf6eHHnqoiUjexx9/LC+//LK88MIL8uyzz+oeL6rKpT117Ysvvliuu+466devnzkLB0uHAAAAAKQjmuGix3v66ad1v5Tx48fHJFlUomP06NGybNky/WFc9WX5xS9+IZdddplOuuxLkkU58sgjdXWLqoB54IEH5O2335YXX3xRJ/T69+9vokQ+//xz+fWvf637uUyePFneeecd8wgOlKzsfDNKjDg74uyIsyPOjjg74uyIsyPOjjg74uyIs+uqOCpaerhMrmj55z//KWVlZTqREt0XRVWPXH311XLppZfKN7/5TXO266imu3fccYfumRPdB0b1iamtrdW/F6hoAQAAAJCeqGhBj7R582a9/Oeee+5pTbKccsopsmrVKnnttdekvLy8W5Isiqp2UZUuKjkwYcIE3QtG+eCDD/R83Lhx8sknn+hzAAAAAID0QqIFPc7vfvc73WvF2Unqa1/7ml4SpJYGjRkzpjWx0d1OPPFEuffee/VORGppk0MlgwoKCvSSIwAAAABAeiHRgh5FNbz9yU9+0loRoqpHVGPan/3sZ3LIIYfoc6lGVd78+c9/1ts/OzsWqV2KVLJo586deg4AAAAASA8kWtBjNDQ06P4mX375pZ5feeWVsnHjRjnhhBP0PJX16tVLb/ms+rYcdthh+tyOHTukuLhYgsGgngMAAAAAej4SLegRtm/frrdK3rNnj57/53/+p24C3Lt3bz3vKVQ1ziOPPCKHH364nqtdki666KKYZr4AAAAAgJ6LRAtSnkpCXH755fLhhx/q+QUXXCB1dXV63BMVFRXpnZKcZUTr1q2TtWvX6jEAAAAAoGcj0YKUd//998szzzyjx2qZkNppyElS9FRjx46V66+/Xo488khZsWKFjBgxwjwCAAAAAOjJSLQgpalqlptvvtnMRG6//XadnEgHVVVV8uKLL8oll1xizgAAAAAAejoSLUhpTz/9tLz22mt6fOqpp8qoUaP0OB2oXZJOPvlkM4MbsrLzzSgx4uyIsyPOjjg74uyIsyPOjjg74uyIsyPOrqviPMFg0NUunIFAQHw+n5klVlVdJ5UVZWZ24MyfP1/mzZunx1dddZU+0oVqCKsORT3HuXPn6nG6KC8vb+3HsmjRIpkxY4Yeo+frzN+/3+8Xr9drZrGc9xx9vekl5iwAAAAAdA8qWpDSnn/+eTMSGTZsmBkBAAAAAJCaSLQgpalKBke/fv3MCAAAAACA1ESiBSlt165dZiRy2GGHmREAAAAAAKmJRAtS2qGHHmpGIh9++KEZAQAAAACQmki0IKWdeOKJZiStuw8BAAAAAJCqSLQgpQ0ZMsSMRDZs2GBGAAAAAACkJhItSGnFxcVmJLJ8+XL54osvzAwAAAAAgNRDogUpbcSIEXLcccfp8d/+9jedbAEAAAAAIFWRaEFK69Wrl8yYMcPMRCoqKuTdd981MyBWVna+GSVGnB1xdsTZEWdHnB1xdsTZEWdHnB1xdsTZdVWcJxgMhszYFYFAQHw+n5klVlVdJ5UVZWZ24MyfP1/mzZunx1dddZU+0sXdd9+tD0U9x7lz5+pxOlHLhQYPHixbtmzR82HDhsn69evl4IMP1nP0TJ35+/f7/eL1es0slvOeo683vcScBQAAAIDuQUULUt4hhxwiK1askD59+uj5k08+KRMnTpSvvvpKzwEAAAAASBUkWtAjDBo0SO666y456KDIP9n77rtPLrzwQtm1a5eeAwAAAACQCki0oMcYP3683HHHHeLxePR89erVMnToUGlubtZzAAAAAAC6G4kW9CiTJ0/Wy4gOPfRQPf/LX/4ip512mtTU1LD1MwAAAACg25FoQY9z8cUX6z4t2dnZev7JJ5/ItGnT5Hvf+5489NBDEgq52t8ZAAAAAICkkWhBj1RYWCgvvviiTJgwoXUp0datW2XMmDEycOBAufPOO+Uf//iHPg8AAAAAQFch0YIeq2/fvnLvvffq6hbVLNfx2muvyZQpUyQrK0vGjRunq1w++ugj8ygAAAAAAAcOiRb0eGeeeaa88MIL8uCDD+rlQw61pGjVqlW6yuWYY46RgoICmTFjho7btm2b7Nmzx0QCAAAAAOAOEi1IC2r50NixY+Wll16SjRs36uTK4Ycfbh4V3Sj3ueeek9tuu01vC/3d735XjjjiCPH5fDpRoypfVKNdlYiZM2eOLFiwQD788EPz3egpsrLzzSgx4uyIsyPOjjg74uyIsyPOjjg74uyIsyPOrqviPMFg0NXOoYFAQH94TUZVdZ1UVpSZ2YEzf/58mTdvnpmlL/Uc586da2ZQPVrWrFkjjz76qDz++OOdXj70P//zP3LCCSeYGdzWmb9/v98vXq/XzGI57zn6etNLzFkAAAAA6B4ZUdHSu3dvM0pvmfI8k/X1r39dLrvsMt2j5b333pOmpib5+c9/rqtXBgwY0OHrdfDBB5sRAAAAAADJyYhEi1pGkpOTY2bpST0/9Txhd8ghh0h+fr5MnTpVVq5cKa+88oru4bJ9+3Z5+umn9Tm1U5FaWlRVVaWXDx111FHmuwEAAAAASE5GJFpUEqK5uVlCoVDaHur5pXsyyW0q+XLSSSfJj370I13lcvXVV8u0adPkxhtv1MvNVEUMAAAAAACdQTNcAAAAAAAAl5BoAQAAAAAAcAmJFgAAAAAAAJeQaAEAAAAAAHAJiRYAAAAAAACXkGgBkDaysvPNKDHi7IizI86OODvi7IizI86OODvi7IizI86uq+I8wWAwZMauCAQC4vP5zCyxquo6qawoMzMAmaQzf/9+v1+8Xq+ZxXLec/T1ppeYswAAAADQPahoAQAAAAAAcAmJFgAAAAAAAJeQaAEAAAAAAHAJiRYAAAAAAACXkGgBAAAAAABwCYkWAAAAAAAAl5BoAQAAAAAAcAmJFgAAAAAAAJeQaAGQNrKy880oMeLsiLMjzo44O+LsiLMjzo44O+LsiLMjzq6r4jzBYDBkxq4IBALi8/nMLLGq6jqprCgzMwCZpDN//36/X7xer5nFct5z9PWml5izAAAAANA90q+ipaFUPB6PPkobwvOWWiksrJUW52skqmOdjU8FPfF3dtO+3msAAAAAAFySZomWBikdvkVqmkMSaq6RLVUuf9hWH+BNEidyFErtvv4AkgH7bq/7YO7FG+ZxRzKvcXRMp+9Ji9QWhn829xEAAAAAYKRXoqVlm2yRPOmXEx7nlEtjY7mooasKaqQ5FJKQOprHyqrcUlGFM+hi0fdBH41Snm0ec3T230Bn41sek1UyKfx/q+QxMi0AAAAAgLA0SrQ0SGnuVGmSpTJcVTgMLpHB8SoNYioioqpSos/ra3Ugp5/kmaEW77rqd2s9r5Y0tUjthPD1m6ZKbnheGA5sqS1sfbz1e02FRW1p9PdGrhj7s8JH++ca93fJIOb1iywlKpVSVX1iXpPI69juPtx4Q1RFS/t7pk/GaHlslcjYmXJ+XpOscjItMffMScJ1fC0AAAAAQHpIo0RLsdQ310iBU+mw6gw5zDwSSyVktkqlUwmhqlImqA/XkURN3lrnfPha5jvianhYlhb0l9zIJM511fKS4SLOdcNHfXGOlC9v+10by3Mkp7yx9fHQ2jyZush8Gm+aKlvPd85PkqV6OVRHv2u83yWNmOSIk7zocPlO0xbpv9y8Hup1HK6SIO3uw8RjTbDtnpmHWrWIzrOMzJHi8ydJ06rH2n5+6z2rD/+rTOZaAAAAAIB0kX7NcDuilxeZqhd1qMqVpq3SrM6HP3DP7OhDcPQH/Kr+0uwsNYl7XbW8JInrRlegDF8qsmVb5IN79O+U2z+SUOnod433u5iH04JJjjjJi1BHS34KxspIJ6D4fJkUfoW2xcvMJHPPdIy5prpeU9Tyoeh7k+z9BwAAAACkhcxLtCjtP6TryoMkOd+rqkjaJy/29boqyZIb/tiumvg61zYPWTVv7XhZ0/48R3RILRtylhx5PMNlafiOtC4fAgAAAABkrMxLtKi+KuEPyM7KnFb6fFtVgv4gHRnaqcapa0WGO3044l53pIwVy3klOlETVXHR4c9uX0HRXrzfBRF6yVdUhUv7hFmie6apZUNNMilqOZBajhSzfMjR4bUAAAAAAOkkAytaIr1ctgw3y2rUoft7hM+r3ii5kXMTtuZ13KOluF6aa7bIcN1sNt51I31Aos/rZqg55VI5KbK8p/CxkVKZ17YkqeOfHfu77t24N97vkkail3DpI3wP2m/vHC06XrVMcZYaRd+HZe/q0PBJ+z1z2JYDOcmvvX6HDq4FV2Vl55tRYsTZEWdHnB1xdsTZEWdHnB1xdsTZEWdHnF1XxXmCwWDIjF0RCATE5/OZWWJV1XVSWVFmZthnDaXiefh8CdFl1U4tzZogsrwzWzfjgOvM37/f7xev12tmsZz3HH296SXmLAAAAAB0j8zs0ZIGGqK2fNYVGiRZAAAAAADodiRaeqji+qj+IDS6TUz106GaBQAAAADQBUi0AAAAAAAAuIRECwAAAAAAgEtItAAAAAAAALiERAsAAAAAAIBLSLQAAAAAAAC4hEQLAAAAAACAS0i0AEgbWdn5ZpQYcXbE2RFnR5wdcXbE2RFnR5wdcXbE2RFn11VxnmAwGDJjVwQCAfH5fGaWWFV1nVRWlJkZgEzSmb9/v98vXq/XzGI57zn6etNLzFkAAAAA6B5UtAAAAAAAALiERAsAAAAAAIBLSLQAAAAAAAC4hEQLAAAAAACAS0i0AAAAAAAAuIRECwAAAAAAgEtItAAAAAAAALiERAsAAAAAAIBLSLQASBtZ2flmlBhxdsTZEWdHnB1xdsTZEWdHnB1xdsTZEWfXVXGeYDAYMmNXBAIB8fl8ZpZYVXWdVFaUmRmATNKZv3+/3y9er9fMYjnvOfp600vMWQAAAADoHlS0AAAAAAAAuIRECwAAAAAAgEtItAAAAAAAALiERAsAAAAAAIBLSLQAAAAAAAC4hEQLAAAAAACAS0i0AAAAAAAAuIRECwAAAAAAgEtItABIG1nZ+WaUGHF2xNkRZ0ecHXF2xNkRZ0ecHXF2xNkRZ9dVcZ5gMBgyY1cEAgHx+XxmllhVdZ1UVpSZGYBM0pm/f7/fL16v18xiOe85+nrTS8xZAAAAAOgeVLQAAAAAAAC4hEQLAAAAAACAS0i0AAAAAAAAuIRECwAAAAAAgEtItAAAAAAAALiERAsAAAAAAIBLSLQAAAAAAAC4hEQLAAAAAACAS0i0AEgbWdn5ZpQYcXbE2RFnR5wdcXbE2RFnR5wdcXbE2RFn11VxnmAwGDJjVwQCAfH5fGaWWFV1nVRWlJkZgEzSmb9/v98vXq/XzGI57zn6etNLzFkAAAAA6B5UtAAAAAAAALiERAsAAAAAAIBLSLQAAAAAAAC4hEQLAAAAAACAS0i0AAAAAAAAuIRECwAAAAAAgEtItAAAAAAAALiERAsAAAAAAIBLSLQASBtZ2flmlBhxdsTZEWdHnB1xdsTZEWdHnB1xdsTZEWfXVXGeYDAYMmNXBAIB8fl8ZpZYVXWdVFaUmRmATNKZv3+/3y9er9fMYjnvOfp600vMWQAAAADoHlS0AAAAAAAAuIRECwAAAAAAgEtItAAAAAAAALiERAsAAAAAAIArRP4fby9crpwahvsAAAAASUVORK5CYII=;movable=0;resizable=0;rotatable=0;deletable=0;editable=0;locked=1;connectable=0;" vertex="1" parent="1">
          <mxGeometry x="30" y="171.99" width="1014" height="517.01" as="geometry" />
        </mxCell>
        <mxCell id="sacguVR-Hg_UPBlP-U39-3" value="" style="rounded=0;whiteSpace=wrap;html=1;strokeWidth=5;strokeColor=#FF0000;fillColor=none;" vertex="1" parent="1">
          <mxGeometry x="90" y="210" width="40" height="30" as="geometry" />
        </mxCell>
        <mxCell id="sacguVR-Hg_UPBlP-U39-6" value="" style="rounded=0;whiteSpace=wrap;html=1;strokeWidth=5;strokeColor=#FF0000;fillColor=none;" vertex="1" parent="1">
          <mxGeometry x="910" y="210" width="40" height="30" as="geometry" />
        </mxCell>
        <mxCell id="sacguVR-Hg_UPBlP-U39-7" value="&lt;font style=&quot;font-size: 16px;&quot;&gt;&lt;b&gt;Step 3: &lt;/b&gt;Add electrical connection points with the &quot;Create Port&quot; button.&lt;/font&gt;" style="shape=callout;whiteSpace=wrap;html=1;perimeter=calloutPerimeter;fillColor=#f8cecc;strokeColor=#b85450;direction=west;" vertex="1" parent="1">
          <mxGeometry x="835" y="240" width="190" height="110" as="geometry" />
        </mxCell>
        <mxCell id="sacguVR-Hg_UPBlP-U39-8" value="&lt;b&gt;Step 1:&lt;/b&gt; Create a new Symbol document." style="shape=callout;whiteSpace=wrap;html=1;perimeter=calloutPerimeter;fillColor=#f8cecc;strokeColor=#b85450;direction=south;position2=0.59;base=20;size=40;position=0.41;fontSize=16;" vertex="1" parent="1">
          <mxGeometry x="130" y="197.5" width="235" height="55" as="geometry" />
        </mxCell>
        <mxCell id="sacguVR-Hg_UPBlP-U39-9" value="&lt;font style=&quot;font-size: 16px;&quot;&gt;&lt;b&gt;Step 2: &lt;/b&gt;Add custom graphics using the graphic components from the &lt;i&gt;Paintings&lt;/i&gt;&amp;nbsp;section.&lt;/font&gt;" style="shape=callout;whiteSpace=wrap;html=1;perimeter=calloutPerimeter;fillColor=#f8cecc;strokeColor=#b85450;direction=south;size=50;position=0.5;" vertex="1" parent="1">
          <mxGeometry x="300" y="560" width="320" height="80" as="geometry" />
        </mxCell>
        <mxCell id="sacguVR-Hg_UPBlP-U39-10" value="" style="rounded=0;whiteSpace=wrap;html=1;strokeWidth=5;strokeColor=#FF0000;fillColor=none;" vertex="1" parent="1">
          <mxGeometry x="50" y="290" width="250" height="400" as="geometry" />
        </mxCell>
        <mxCell id="sacguVR-Hg_UPBlP-U39-11" value="&lt;span&gt;&lt;i&gt;The default symbol is a simple square.&lt;/i&gt;&lt;/span&gt;" style="shape=callout;whiteSpace=wrap;html=1;perimeter=calloutPerimeter;fillColor=#f8cecc;strokeColor=#b85450;direction=south;size=50;position=0.5;fontSize=16;" vertex="1" parent="1">
          <mxGeometry x="550" y="400" width="240" height="80" as="geometry" />
        </mxCell>
        <mxCell id="sacguVR-Hg_UPBlP-U39-12" value="" style="rounded=0;whiteSpace=wrap;html=1;strokeWidth=5;strokeColor=#FF0000;fillColor=none;" vertex="1" parent="1">
          <mxGeometry x="450" y="400" width="100" height="90" as="geometry" />
        </mxCell>
        <mxCell id="sacguVR-Hg_UPBlP-U39-13" value="Creating a Custom Symbol" style="text;strokeColor=none;align=center;fillColor=none;html=1;verticalAlign=middle;whiteSpace=wrap;rounded=0;fontStyle=1;fontSize=30;" vertex="1" parent="1">
          <mxGeometry x="280" y="130" width="540" height="30" as="geometry" />
        </mxCell>
      </root>
    </mxGraphModel>
  </diagram>
</mxfile>
